<svg width="44" height="44" viewBox="0 0 44 44" fill="none" xmlns="http://www.w3.org/2000/svg">
<g clip-path="url(#clip0_2059_215)">
<path d="M13.7463 42.3918C9.6853 40.7475 6.2076 37.9283 3.75862 34.2955C1.30965 30.6626 0.000899934 26.3813 4.05479e-09 22.0001C-8.41026e-05 17.6186 1.30827 13.3369 3.75737 9.70386C6.20647 6.07079 9.68472 3.25186 13.7463 1.6084V42.3918Z" fill="#F10018"/>
<path d="M13.7463 1.60824C19.1554 -0.577567 25.211 -0.526316 30.5822 1.75073C35.9535 4.02778 40.2009 8.3443 42.3909 13.7516H13.7463V1.60824Z" fill="#009044"/>
<path d="M42.3909 13.7535C43.4507 16.3736 43.994 19.1738 43.9911 22C43.9911 24.9144 43.422 27.7015 42.3909 30.2474H13.7463V13.7517H42.3909V13.7535Z" fill="white"/>
<path d="M13.7463 42.3915V30.2463H42.3909C40.2012 35.654 35.954 39.9709 30.5827 42.2483C25.2114 44.5257 19.1556 44.5772 13.7463 42.3915Z" fill="black"/>
</g>
<defs>
<clipPath id="clip0_2059_215">
<rect width="44" height="44" fill="white"/>
</clipPath>
</defs>
</svg>
