<svg width="44" height="44" viewBox="0 0 44 44" fill="none" xmlns="http://www.w3.org/2000/svg">
<path d="M2.3999 22.1999C2.3999 33 11.1999 41.7999 21.9999 41.7999C32.7999 41.7999 41.5999 33 41.5999 22.1999C41.5999 11.3999 32.7999 2.59995 21.9999 2.59995C11.1999 2.39995 2.3999 11.3999 2.3999 22.1999Z" fill="#00237D"/>
<path d="M22 2.3999C20 2.3999 18 2.7999 16 3.3999L8.59995 7.7999V7.5999C4.79995 11.1999 2.19995 16.3999 2.19995 21.9999V22.1999H8.59995V16.7999L17.4 22.1999H21.8V19.9999L14.6 15.5999H21.8V9.1999H14.6L21.8 4.7999V2.3999H22Z" fill="white"/>
<path d="M8.3999 9.2001H10.9999L21.9999 2.6001C20.9999 2.6001 19.9999 2.6001 18.9999 2.8001L8.3999 9.2001ZM7.3999 9.0001C5.5999 11.0001 4.3999 13.2001 3.3999 15.6001V22.2001H7.3999V14.2001H21.9999V10.2001H7.3999V9.0001ZM21.9999 22.4001H21.5999L10.5999 15.6001H13.1999L22.1999 21.0001V22.4001H21.9999Z" fill="#CD1428"/>
<path d="M34.7999 37.1999L33.3999 36.3999L34.1999 34.9999L32.5999 35.5999L31.9999 33.9999L31.3999 35.5999L29.7999 35.1999L30.5999 36.5999L29.1999 37.5999L30.7999 37.7999V39.3999L31.9999 38.1999L32.5999 38.7999C32.7999 38.5999 32.9999 38.5999 32.9999 38.3999V37.5999L34.7999 37.1999ZM27.7999 21.1999V22.7999L28.9999 21.5999L30.1999 22.5999L29.9999 20.9999L31.5999 20.7999L30.1999 19.7999L30.9999 18.3999L29.3999 18.9999L28.7999 17.3999L28.1999 18.9999L26.5999 18.5999L27.3999 19.9999L25.9999 20.9999L27.7999 21.1999ZM11.5999 31.7999L13.1999 28.9999L9.9999 29.9999L8.7999 26.9999L7.5999 29.9999L4.3999 28.9999L5.9999 31.7999L5.1999 32.3999L6.3999 34.1999H6.5999V34.3999C6.9999 34.9999 7.5999 35.5999 7.9999 35.9999L8.7999 35.1999L11.1999 37.3999L10.9999 34.1999L14.1999 33.5999L11.5999 31.7999ZM38.9999 23.7999L38.3999 22.7999L37.9999 23.7999L36.7999 23.9999L37.5999 24.7999L37.3999 25.9999L38.3999 25.3999L39.3999 25.7999L39.1999 24.7999L39.9999 23.9999L38.9999 23.7999ZM36.9999 9.3999C37.7999 10.1999 38.3999 11.1999 38.9999 12.1999H38.3999L38.5999 13.7999L37.3999 12.7999L36.1999 13.9999V12.3999L34.5999 12.1999L35.9999 11.1999L35.1999 9.7999L36.7999 10.1999L36.9999 9.3999Z" fill="white"/>
</svg>
