<svg width="44" height="44" viewBox="0 0 44 44" fill="none" xmlns="http://www.w3.org/2000/svg">
<g clip-path="url(#clip0_2059_157)">
<path d="M24.684 44C35.5685 42.6681 44 33.3382 44 22.0275C44 10.5472 35.3146 1.10917 24.1954 0H19.8046C8.68542 1.10917 0 10.5472 0 22.0275C0 33.3382 8.4315 42.6681 19.316 44H24.684Z" fill="#F9DF00"/>
<path d="M0.64624 16.6805L43.0375 28.5211C43.6627 26.4677 43.9991 24.2861 43.9991 22.0274C43.9991 20.7624 43.8937 19.5221 43.6911 18.3149L5.31666 7.59814C3.07252 10.2204 1.47308 13.3314 0.64624 16.6823V16.6805Z" fill="white"/>
<path d="M0.305255 25.7227L38.6943 36.4449C40.6718 34.1305 42.1506 31.4331 43.0384 28.5212L0.646255 16.6807C0.215768 18.4303 -0.00122857 20.2257 5.23175e-06 22.0276C5.23175e-06 23.2862 0.104505 24.5209 0.305255 25.7227Z" fill="#231815"/>
<path d="M21.9184 8.64795H22.0266L22.5674 8.9202L22.6215 9.62603L22.3511 9.95328L22.297 10.1705L22.946 10.3337L23.5941 10.7691L24.0268 10.9864L24.6217 11.0414L24.7839 11.2045L24.6217 11.4218L23.9727 11.9113L24.4053 12.7271H23.8104C23.4272 12.6202 23.0627 12.4551 22.7297 12.2376L22.297 12.1285V12.618C22.6756 12.618 23.0542 12.618 23.4318 12.8353L23.8645 13.2707C24.1349 13.7602 24.2431 14.3588 24.189 14.9024L24.0268 15.2287L23.6482 15.0655L23.3787 14.3588L23.2164 14.9574L22.946 15.1746L22.7297 15.0655L22.5133 14.5219L22.4052 14.9024V15.8814C22.6756 15.7182 23.0542 15.6641 23.3787 15.7182C23.7023 15.7732 23.9727 15.8814 24.2972 15.9904C25.0543 16.2618 25.7565 16.5881 26.5678 16.8063C27.2158 16.9694 27.8648 17.1326 28.5129 17.0776C28.9456 17.0776 29.4323 17.0235 29.865 17.0776L30.1895 17.2408L30.1345 17.513L29.5937 17.8934L29.4864 18.2198C29.2701 18.4379 28.9456 18.492 28.6211 18.5461L28.4057 18.7093C29.3242 19.6883 29.865 20.9936 30.0813 22.2989C30.4049 24.3119 30.0813 26.4331 29.0547 28.2279C28.3516 29.4783 27.324 30.5654 26.0269 31.219C24.5135 32.0899 22.6756 32.3612 20.9458 32.143C19.8451 32.034 18.7783 31.7012 17.8108 31.1649C16.899 30.6261 16.0929 29.9256 15.4321 29.0979C14.0268 27.194 13.4319 24.6924 13.8105 22.3539C14.0268 20.9936 14.5677 19.7433 15.4862 18.7093L15.3239 18.3829L14.5136 18.1116L14.3513 17.7853L13.7564 17.3499V17.0235L14.2973 16.9144C14.9994 16.9144 15.7025 17.0244 16.4056 16.9144C17.2159 16.7513 18.0272 16.4799 18.7834 16.2086C19.3243 15.9904 19.8101 15.8273 20.3509 15.6641C20.7295 15.555 21.2163 15.6091 21.5948 15.8273V14.9564L21.4867 14.5219L21.2703 15.0655L21.054 15.2287L20.7836 15.0655L20.5673 14.4679L20.2968 15.2287L19.9192 15.2837L19.7569 14.8483C19.7019 14.4129 19.811 13.9774 19.9733 13.5429L20.2428 13.0534L20.7836 12.7812L21.6489 12.7262V10.1164L21.3244 9.68103L21.4326 9.08337L21.9184 8.64795Z" fill="#221715"/>
<path d="M21.8112 8.86499L22.4593 9.19132L22.297 9.73582L21.8112 9.78991L21.4326 9.35449L21.8112 8.86499ZM21.8112 10.0622H22.1348V10.1162H21.9184V12.0742H22.1348V12.8351H21.8653L21.8103 12.7269V10.0622H21.8112Z" fill="#CC303B"/>
<path d="M22.1348 10.3335C22.5134 10.3335 22.8919 10.4426 23.2164 10.6598L23.5941 10.9862C23.8706 11.1577 24.1882 11.2517 24.5135 11.2584L23.8645 11.7479L23.8104 11.9111L24.1349 12.5087C23.8104 12.4547 23.4869 12.2915 23.1624 12.1283L22.7297 11.9111L22.1348 11.8561V10.3344V10.3335ZM20.7295 12.8901L21.5949 12.781L21.8112 13.0532L22.2429 12.9982L22.3511 12.8351C22.6756 12.8351 23.0542 12.8351 23.3778 12.9982C23.0649 13.1051 22.7367 13.1602 22.4061 13.1614H21.3244L20.5673 12.9982L20.7295 12.8901ZM20.3509 13.1614L20.4591 13.2164L21.054 13.3796C21.3785 13.4346 21.7571 13.4346 22.0807 13.4346C22.4593 13.4346 22.8379 13.4346 23.1624 13.3246L23.5941 13.1614C23.8104 13.4877 23.9727 13.8691 24.0268 14.2495L23.9727 15.0653L23.8104 14.9022L23.5941 14.2495L23.4319 14.0863L23.2164 14.1954L22.8919 14.9562L22.5674 14.1954L22.4052 14.1404L22.297 14.3036L22.0266 14.9022H21.8644L21.5408 14.1954H21.3244L20.9999 15.0112L20.6754 14.1954H20.405L20.1346 14.9562L20.0274 15.0662C19.9191 14.7301 19.9191 14.3684 20.0274 14.0322L20.2428 13.4877L20.3509 13.1614Z" fill="#CC303B"/>
<path d="M21.8112 15.0654H22.1888V15.8813H21.8112V15.0654Z" fill="#CC303B"/>
<path d="M19.8642 16.0444L20.6754 15.8271L21.4326 15.9903L22.0266 16.1535L22.5674 15.9903C22.8919 15.8271 23.2164 15.8271 23.54 15.8812C24.0268 16.0444 24.5135 16.2076 25.0003 16.4248C25.8106 16.7511 26.6219 17.0234 27.4322 17.1325C28.1353 17.2406 28.8374 17.1325 29.5405 17.1325L29.9732 17.1875C29.7569 17.4588 29.4324 17.622 29.1079 17.622C28.5129 17.677 27.8649 17.622 27.2699 17.567L27.1618 17.677L27.324 17.7851C27.9189 17.8392 28.5679 17.9483 29.216 17.8392H29.3783L28.9456 18.1115C28.4598 18.2746 27.973 18.2746 27.4863 18.2196C26.8776 18.1714 26.2779 18.0435 25.7024 17.8392L25.5402 17.9483L25.6484 18.0565C26.2793 18.2617 26.9327 18.3898 27.5944 18.4378H28.3516L28.0812 18.546L27.3781 18.7091C26.7841 18.7091 26.1892 18.7091 25.5943 18.546L24.838 18.2196L24.6758 18.2746L24.7839 18.4378C25.2166 18.7091 25.7024 18.7641 26.1351 18.8182C26.4055 18.8732 26.73 18.8732 27.0536 18.8732L26.1892 19.0355C25.6209 18.9844 25.0594 18.8751 24.5135 18.7091C24.189 18.601 23.8645 18.4919 23.5941 18.2196H23.4319L23.4869 18.3828L23.8104 18.601L24.189 18.7091C24.5676 18.8182 24.9462 18.8723 25.3239 18.9814L25.1084 19.1986C24.7299 19.2536 24.4054 19.1986 24.0268 19.0905C23.5941 18.9273 23.1624 18.7091 22.8379 18.3828L22.7297 18.3287L22.6215 18.4919C22.8379 18.7641 23.1624 18.9814 23.4869 19.1446C23.0542 19.0896 22.6215 18.9273 22.297 18.6551L21.9725 18.2746L21.703 18.546C21.4326 18.7641 21.1072 18.8723 20.7836 18.9814L20.3509 19.0364L20.2969 18.9264L20.5673 18.601C20.9999 18.2746 21.4867 18.1115 21.9725 18.0024L22.0807 17.8933L21.9184 17.7851C21.4326 17.8933 20.8918 18.0565 20.4591 18.3828V18.2196H20.2969L19.5947 18.601C19.2161 18.7091 18.8916 18.8182 18.513 18.8723C18.1894 18.9273 17.8109 18.9814 17.4864 18.9814L16.8914 18.8182C17.4323 18.8182 17.9731 18.7632 18.5139 18.6551L19.2161 18.3828L19.2702 18.2746L19.162 18.1656L18.4589 18.546C17.9181 18.7091 17.3782 18.7091 16.7833 18.7091L15.9189 18.601L15.5403 18.4378H15.9189C16.676 18.4919 17.4323 18.3287 18.1894 18.1115L18.3517 18.0565V17.8933H18.2435C17.4323 18.1115 16.621 18.3287 15.8107 18.2196L14.9994 18.0565L14.6218 17.8392L15.4321 17.8942C15.8648 17.8942 16.2974 17.8392 16.7292 17.7842V17.567C16.1884 17.622 15.5944 17.7301 15.0535 17.677L14.4054 17.5129L13.9728 17.1866L14.7299 17.1316C15.0544 17.1316 15.4321 17.1866 15.7566 17.1866C16.1893 17.1866 16.676 17.0775 17.1078 16.9693C18.0813 16.7511 18.9998 16.3707 19.8651 16.0444H19.8642Z" fill="#CC303B"/>
<path d="M18.6753 19.1997C19.2702 19.0897 19.8651 18.9274 20.351 18.6011L20.1346 18.8724V19.1447C19.757 19.2537 19.3784 19.3619 18.9998 19.3619L18.6753 19.1997ZM21.703 18.9274L21.9725 18.7092L22.243 18.9815V19.9064L21.9725 19.6342L21.703 19.9064V18.9274Z" fill="#CC303B"/>
<path d="M27.6485 18.8723L28.1893 18.7642C28.9455 19.525 29.4323 20.504 29.7018 21.538C30.2426 23.496 30.0272 25.6712 29.216 27.5202C28.6081 28.8365 27.6557 29.9641 26.4595 30.7835C25.7024 31.273 24.892 31.5993 24.0267 31.8166C23.0699 32.0348 22.0832 32.0899 21.108 31.9797C20.1345 31.8716 19.1079 31.5993 18.2435 31.1639C17.27 30.6753 16.4596 29.9677 15.8106 29.1518C14.4595 27.412 13.8645 25.1277 14.0809 22.9515C14.19 21.6872 14.6176 20.4711 15.3239 19.4168L15.8106 18.8182L16.3515 18.9273C15.7025 20.1236 15.5402 21.538 15.7565 22.8974C15.9188 23.9855 16.3515 25.0186 16.9995 25.9435C17.5945 26.7043 18.3516 27.357 19.216 27.7924C20.2405 28.2873 21.3803 28.4942 22.5133 28.391C23.5978 28.3294 24.6446 27.9718 25.5401 27.357C26.2973 26.8675 26.8922 26.1607 27.378 25.399C27.912 24.424 28.2431 23.3511 28.3515 22.2447C28.4056 21.1026 28.1893 19.9063 27.6485 18.8723Z" fill="#CC303B"/>
<path d="M16.5137 18.9815L16.6219 18.9265L16.7842 19.1447L17.5404 19.3078L18.4589 19.2528L18.9457 19.5801C19.3783 19.6342 19.8651 19.5251 20.2968 19.3619H20.405L20.8917 19.3078L21.5407 19.0356V20.1778L21.4326 20.3409L21.3244 20.6673C21.1622 20.3959 20.9458 20.1237 20.6213 20.0146H20.1355L20.4591 20.3959L20.6754 21.1027C20.7304 21.7553 20.7304 22.408 20.7304 23.0607L19.9192 23.0057L20.405 23.5502L20.5672 24.421C20.6222 24.9096 20.5672 25.3991 20.6222 25.9427V26.7044C20.2968 26.5963 19.9732 26.6494 19.6487 26.7044L20.0814 27.4121L20.1887 28.0648C19.2499 27.7916 18.395 27.2866 17.7027 26.5963C16.2433 25.0728 15.5402 22.8434 15.9188 20.7763C16.0811 20.0696 16.2433 19.5251 16.5137 18.9815ZM26.6218 19.3078L27.324 18.9274H27.4862C28.0271 19.9064 28.2434 21.0486 28.1893 22.1908C28.1401 23.3251 27.8052 24.4287 27.2158 25.3991C26.73 26.1599 26.081 26.8676 25.3238 27.3571C24.8689 27.6392 24.378 27.8587 23.8645 28.0098L23.9727 27.3571L24.4053 26.6503C24.0808 26.5953 23.7022 26.5413 23.3787 26.7053C23.3787 25.9436 23.3787 25.1818 23.4327 24.4201L23.595 23.6043L24.0808 23.0607H23.2705C23.2705 22.408 23.2705 21.7553 23.3787 21.0486L23.5941 20.3959L23.9186 20.0146H23.3246L22.6215 20.6132L22.5674 20.5041L22.4592 20.1778V19.0906C22.8378 19.3078 23.2705 19.4169 23.6482 19.4169H23.9727C24.2972 19.5251 24.6757 19.5801 24.9993 19.5251L25.4861 19.2538C25.8647 19.3078 26.2432 19.3619 26.6218 19.3078Z" fill="#CC303B"/>
<path d="M21.5948 20.5039L21.9725 19.9062C22.1888 20.1235 22.297 20.4498 22.4052 20.7762L22.5674 21.3197L22.7838 20.8302L23.3787 20.2867L23.1623 20.7221C23.1073 21.1025 23.0542 21.4829 23.0542 21.8643C23.0542 22.2988 23.0542 22.7342 22.9992 23.1696L22.7838 23.3868L22.6215 23.6041L22.297 22.9514L21.9184 22.5169C21.5948 22.7882 21.3776 23.2237 21.2163 23.6591L20.8918 23.2237C20.8918 22.5169 20.8918 21.8092 20.8377 21.0484L20.6213 20.2326C21.054 20.4498 21.2163 20.8852 21.4326 21.2657L21.5948 20.5048V20.5039Z" fill="#CC303B"/>
<path d="M21.9725 22.7883C22.2429 23.0606 22.4052 23.441 22.5134 23.8223L22.6215 24.42C22.7297 24.0937 22.7838 23.7673 23.0542 23.496L23.54 23.2237L23.3246 23.496C23.2164 23.7673 23.2164 24.0937 23.1624 24.42C23.1074 25.1817 23.1074 25.9976 23.1074 26.7593L22.7838 27.1397C22.6215 26.7043 22.3511 26.2689 21.9725 25.9976L21.4317 26.5962L21.1622 27.1938L20.7836 26.7593C20.7836 25.9435 20.7836 25.0727 20.7295 24.2568L20.6214 23.441L20.405 23.1147L20.9459 23.3869C21.1622 23.6592 21.2163 23.9855 21.3785 24.2577L21.4867 23.7673C21.5408 23.441 21.703 23.0606 21.9725 22.7883Z" fill="#CC303B"/>
<path d="M28.3516 23.55H28.8375L29.4324 23.7132L29.7569 23.8764L29.162 23.6591L28.3516 23.6041V23.55ZM14.675 23.7132L15.1617 23.7682L15.2167 23.8764L14.9995 23.7673L14.6759 23.9855L14.5677 24.5831L14.7841 25.2358H14.9995L15.1617 24.7463H15.7026L16.0271 25.1817L15.6485 25.5621L15.7566 25.2358L15.6485 24.8554H15.4321L15.324 25.2358L15.1617 25.399C14.8381 25.454 14.4596 25.2908 14.3514 24.9645C14.1891 24.6381 14.2432 24.2568 14.4055 23.9855L14.6759 23.7132H14.675ZM28.1894 23.9305L28.3516 23.8223L29.0538 23.9855L29.5396 24.2027L29.7569 24.5831L29.5406 24.8554L29.4324 25.1276L29.2701 24.9645L29.0538 24.7463L29.4324 24.6922L29.4865 24.3659L28.9456 24.0936L28.2976 23.9855L28.1894 23.9305ZM27.8649 24.7463H27.919L28.4598 24.9645L29.162 25.2908L29.3242 25.454L29.1079 25.399L28.7293 25.1817L27.9731 24.8554L27.8649 24.7463ZM29.5406 25.1276L29.6487 25.5621L29.4865 25.6171L29.5406 25.1276ZM27.9181 25.2908L28.2976 25.3449L28.0812 25.5621L28.2435 25.7803L28.0271 25.6703L27.919 25.2908H27.9181ZM28.6221 25.508L28.8375 25.6712L28.9997 25.9975L28.8375 26.4871L28.9997 26.8134L28.7834 27.0856L28.4057 27.0306L28.3507 27.1938L28.1894 27.7383L27.919 28.4991L27.7567 28.6623L27.7026 28.4991L28.0271 27.9015L27.9721 27.7383L27.7567 27.6833L27.5945 27.4661L27.4863 27.0306L27.7026 26.9225L27.9731 27.1397L28.1894 27.2488L28.2435 27.1388V26.6502L28.2976 26.433L28.8384 26.0516L28.7293 25.7803L28.6221 25.508ZM14.5136 25.6171H14.7841L14.8381 25.7803L14.9995 25.9435L14.8922 25.9975L14.5136 25.6171ZM15.2699 26.0516L15.4321 25.9435L15.6485 25.9975L15.5944 26.2698L15.6494 26.433H16.3516V26.7593L15.973 26.9225L16.0271 27.1938L16.2975 27.4661L16.5138 27.411L17.0546 26.9765L17.4323 26.9216L16.622 27.5201L15.9189 27.4651L15.6485 27.1397H15.0536L14.9995 26.7593L15.3781 26.6493V26.433L15.2699 26.0516Z" fill="#FAD200"/>
<path d="M21.2703 27.7925C21.4325 27.2489 21.5948 26.6503 22.0265 26.2158C22.351 26.4872 22.5133 26.8676 22.6214 27.2489L22.7837 27.7384L23.0541 27.1398L23.4868 26.7594L24.0276 26.7044L23.7563 27.2489L23.6481 27.9547C22.6214 28.2279 21.5398 28.1729 20.5131 27.9547L20.4049 27.2489L20.1345 26.7594L20.6213 26.8676L21.0539 27.303L21.2703 27.7925ZM15.9188 26.5412L16.1351 26.7044L15.8647 26.7594L15.9188 26.5412ZM28.5679 26.5962L28.7833 26.8676L28.5138 26.7044L28.5669 26.5962H28.5679ZM15.2157 26.9226L15.4861 26.7594V26.9767H15.2698L15.2157 26.9217V26.9226Z" fill="#CC303B"/>
<path d="M17.0537 27.4661L17.6486 27.0857L17.5405 27.2489L16.9996 27.7384L16.8374 28.0647L17.0537 28.2819L17.3782 27.9015H17.5405C17.4323 28.2279 17.0546 28.4451 16.7292 28.336L16.4597 28.0097L17.0537 27.4661Z" fill="#FAD200"/>
<path d="M27.7026 27.1396L27.8649 27.1946L27.9731 27.4119L27.7567 27.466L27.7026 27.1396Z" fill="#CC303B"/>
<path d="M26.9994 27.5203L27.4321 27.6834L27.5403 28.0648L27.0544 28.7715L26.6218 28.7165L26.4054 28.2279L26.5136 28.4452H26.8922L27.433 28.0648V27.8466L27.2158 27.7925L26.9994 27.5203ZM25.3779 27.9016L25.9737 28.6624L26.2432 29.2069L25.9728 28.8806L25.5942 28.282L25.3779 27.9016ZM25.0543 28.0648H25.1624L25.4319 28.4452L25.7024 29.206L25.7574 29.6414L25.3779 29.8046L25.1624 30.1309L24.7839 30.24L24.5675 30.0228H24.4594L23.9735 30.4032L23.4868 30.1859L23.1623 30.5663L22.6755 30.6213L22.351 30.5663L22.1347 30.3491L21.9193 30.5663L21.5948 30.6213L21.4325 30.3491L21.2703 30.4573L20.8376 30.5663L20.6754 30.4032L20.5672 30.2941L20.2427 30.5123L19.9191 30.4573L19.8641 30.24L19.7569 29.9137L19.865 29.7505L19.9191 29.5873L20.0273 29.5323V30.0768L20.2436 30.24H20.4049L20.7294 29.7505H20.8917V30.1859L21.2162 30.3491L21.5407 29.8596H21.5948V30.1859L21.9193 30.3491L22.0806 30.24L22.2429 29.8596L22.4051 30.3491H22.8909L23.2164 30.24L23.1614 29.8046L23.5949 29.5873H23.8644L23.8104 29.9678L24.1349 30.0768L24.5134 29.5873L24.892 29.3151L25.486 29.4242H25.6483L25.5942 29.1519L25.1624 28.3911L25.0543 28.0648ZM17.5944 28.5543L17.8108 28.4452V28.5002L17.6485 28.8256C17.7036 28.9831 17.8058 29.1198 17.9413 29.2172C18.0767 29.3146 18.2389 29.368 18.4057 29.3701L18.5129 29.2069L18.5679 28.9347L18.7834 28.8797L18.6211 29.3151L18.0271 29.4783L17.5413 29.1519L17.3781 28.8256L17.5944 28.5543ZM18.7834 29.4242L19.216 29.0978L19.4324 29.3701L19.2701 29.6414L19.216 29.3151H18.9456V29.6964L19.2701 30.0228H19.7028L19.5946 30.1859L19.0538 30.1309L18.7293 29.9678H17.973L17.918 29.9137L18.0812 29.6964L18.567 29.9137L18.7293 29.8587L18.7843 29.4242H18.7834ZM19.9191 29.2069L20.0814 29.1519L19.865 29.4242L19.9191 29.2069Z" fill="#FAD200"/>
<path d="M24.8921 29.4783L25.2166 29.6414L24.9462 30.0769L24.7299 29.9137L24.8921 29.4783Z" fill="#CC303B"/>
<path d="M7.75684 19.0905L7.91909 18.7642L8.35175 18.9814L8.62125 18.8723L8.94575 19.0905L9.16209 19.0355L9.48659 19.2537L9.757 19.1446L10.0265 19.4168C10.1888 19.7432 10.2428 20.1236 10.2428 20.4499L10.6755 20.7762C10.8918 21.1026 11.1613 21.3748 11.4327 21.6471L11.9735 22.0816L12.4593 22.6802L12.5134 23.1147V25.5081C12.5134 26.2148 12.5134 26.8675 12.5675 27.5752L12.8379 27.8465L12.7298 28.1728L12.8379 28.4992L12.6757 28.8255L12.8379 29.1518L12.5134 29.4782V29.8595L12.3512 30.1308L11.5408 30.294C11.2163 30.294 10.8378 30.294 10.5142 30.239L9.97334 29.9677V29.4782L9.59475 29.0437L9.70292 28.7173L9.59475 28.4451L9.70292 28.0647L9.757 27.5202L9.97334 27.412V25.7253C9.97334 25.1817 9.97334 24.6382 9.91834 24.0937L9.70292 23.6042C9.27025 23.1697 8.7835 22.8433 8.459 22.2988L8.13542 21.483C7.97317 20.7762 7.81092 20.0695 7.75684 19.3077V19.0905Z" fill="#221715"/>
<path d="M8.02723 19.0354H8.13539L8.45898 19.7972V20.2326L8.56714 20.3957C8.78348 20.6671 8.94573 20.9934 9.05389 21.3197L9.21614 21.7552C9.48656 21.9724 9.81106 22.1356 10.1346 22.2987L10.4051 22.571L10.5673 22.7342L10.6755 22.571L10.5673 21.9724L10.351 21.4288L9.97331 20.7221L10.0265 20.5589L10.5132 20.8302L10.9991 21.4288L11.4326 21.8642L12.1348 22.5169L12.243 22.8432C12.243 24.2567 12.298 25.7252 12.298 27.1397V27.5201L11.6481 27.7382H10.8918L10.2428 27.4119C10.2428 26.3779 10.2428 25.2907 10.1887 24.2567L10.0806 23.7672L9.59473 23.2236C9.27023 22.8973 8.89164 22.6251 8.62123 22.1906C8.40489 21.9183 8.35081 21.5379 8.24356 21.2116C8.12273 20.6917 8.03244 20.1653 7.97314 19.6349L8.02723 19.0354Z" fill="#CC303B"/>
<path d="M8.56714 19.0906H8.72939L8.89164 19.471L8.94664 20.2318L9.48656 20.9395L9.64881 21.4831L10.2428 21.8644L10.4051 22.1907C10.0806 21.9185 9.64881 21.7553 9.32339 21.5381L9.21614 21.1027C9.10797 20.7763 8.89164 20.45 8.67531 20.1777L8.62122 19.3619L8.56714 19.0906Z" fill="#CC303B"/>
<path d="M9.05396 19.3619V19.1987L9.37846 19.6341L9.43254 20.1236L9.59479 20.6672L9.70296 20.8304L10.0265 21.4831L9.81112 21.3749C9.70296 20.9936 9.54071 20.6131 9.27029 20.3409L9.16212 20.1236L9.05396 19.3628V19.3619ZM9.53979 19.4169L9.64887 19.3078L9.81112 19.5251L9.97337 20.3409L9.75704 20.45L9.64887 19.6891L9.54071 19.4169H9.53979ZM9.97337 27.5752L10.1888 27.6293C10.4592 27.7925 10.7296 27.9016 11.0541 27.9556C11.4327 28.0106 11.8104 27.9556 12.1358 27.7925L12.5135 27.7375V27.9006L12.189 28.1729C11.9185 28.3361 11.595 28.3901 11.2705 28.3901C10.8378 28.3901 10.4051 28.3361 10.0265 28.0647L9.81112 27.8466L9.97337 27.5743V27.5752Z" fill="#CC303B"/>
<path d="M9.86511 28.4442L9.9192 28.1729C10.2969 28.4451 10.7836 28.5542 11.2704 28.5542C11.648 28.5542 11.9725 28.4992 12.297 28.336L12.5134 28.2279L12.5674 28.4451L12.1889 28.7174C11.5408 28.9887 10.8377 28.9346 10.1887 28.7174L9.86511 28.4451V28.4442Z" fill="#CC303B"/>
<path d="M9.97334 29.2599L9.91833 28.8254C10.4051 29.0977 10.9459 29.1518 11.4858 29.1518C11.8103 29.0977 12.1348 29.0436 12.4593 28.8804L12.5675 29.0436L12.2971 29.3699C11.8113 29.5872 11.2154 29.6413 10.6755 29.5331L9.97334 29.2609V29.2599Z" fill="#CC303B"/>
<path d="M10.0815 29.5872C10.795 29.8589 11.5835 29.8589 12.2971 29.5872V29.8594L11.8644 30.0226C11.4327 30.0767 11.0541 30.0767 10.6214 30.0226L10.0265 29.8594L10.0815 29.5872Z" fill="#CC303B"/>
<path d="M36.2432 19.0905L36.0809 18.7642L35.7024 18.9814L35.4319 18.8723L35.1084 19.0905L34.9461 19.0355L34.6216 19.2537L34.3512 19.1446L34.0808 19.4168C33.9185 19.7432 33.8644 20.1236 33.8644 20.4499L33.4327 20.7762C33.2164 21.1026 32.9459 21.3748 32.6755 21.6471L32.1347 22.0816L31.6489 22.6802L31.5939 23.1147V25.5081C31.5939 26.2148 31.5939 26.8675 31.5407 27.5752L31.2703 27.8465L31.3784 28.1728L31.2703 28.4992L31.4325 28.8255L31.2162 29.0437L31.4866 29.4782V29.8595L31.7029 30.1308L32.5133 30.294C32.8378 30.294 33.2164 30.294 33.5399 30.239L34.1358 29.9677V29.4782L34.4053 29.0437L34.2971 28.7173L34.4053 28.4451L34.2971 28.0647L34.243 27.5202L34.0267 27.412V25.7253C34.0267 25.1817 34.0267 24.6382 34.0817 24.0937L34.3512 23.6592C34.7839 23.2237 35.2706 22.8974 35.5942 22.3538L35.9187 21.538C36.0809 20.8303 36.2432 20.1236 36.2973 19.3618V19.0905H36.2423H36.2432Z" fill="#221715"/>
<path d="M35.9728 19.0354H35.8646L35.5942 19.7972V20.2326L35.486 20.3957C35.2718 20.6733 35.1074 20.9859 35.0002 21.3197L34.8379 21.7552C34.5675 21.9724 34.243 22.1356 33.9185 22.2987L33.649 22.571L33.4868 22.7342L33.3786 22.571L33.4868 21.9724L33.7031 21.4288L34.0808 20.7221L34.0267 20.5589L33.5409 20.8302L33.0541 21.4288L32.6214 21.8642L31.8652 22.5169L31.757 22.8432C31.757 24.2567 31.702 25.7252 31.702 27.1397V27.5201L32.351 27.7382H33.1082L33.7563 27.466C33.7563 26.4329 33.7022 25.3448 33.7563 24.3117L33.8644 23.8222L34.3512 23.2777C34.6757 22.9514 35.0543 22.6801 35.3247 22.2447C35.5401 21.9724 35.5942 21.592 35.7024 21.2657C35.8232 20.7458 35.9135 20.2194 35.9728 19.689V19.0354Z" fill="#CC303B"/>
<path d="M35.486 19.0906H35.3238L35.1625 19.471L35.1075 20.2318L34.5666 20.9395L34.4053 21.4831L33.8104 21.8644L33.649 22.1907C33.9726 21.9185 34.4053 21.7553 34.7298 21.5381L34.838 21.1027C34.9461 20.7763 35.1625 20.45 35.3788 20.1777L35.432 19.3619L35.487 19.0906H35.486Z" fill="#CC303B"/>
<path d="M34.9461 19.3619L34.8911 19.1987L34.5675 19.6341L34.5134 20.1236L34.3512 20.6672L34.243 20.8854L33.9185 21.5381L34.1889 21.3749C34.2971 20.9936 34.4593 20.6131 34.7297 20.3409L34.892 20.1236L34.9461 19.3628V19.3619ZM34.4602 19.4169L34.3512 19.3078L34.1889 19.5251L34.0267 20.3409L34.243 20.45L34.3512 19.6891L34.4593 19.4169H34.4602ZM34.0267 27.5752L33.8103 27.6293C33.5408 27.7925 33.2695 27.9016 32.9459 27.9556C32.5673 28.0106 32.1887 27.9556 31.8642 27.7925L31.4866 27.7375V27.9006L31.8111 28.1729C32.0806 28.3361 32.4051 28.3901 32.7296 28.3901C33.1622 28.3901 33.5949 28.3361 33.9726 28.0647L34.1889 27.8466L34.0267 27.5743V27.5752Z" fill="#CC303B"/>
<path d="M34.1349 28.4442L34.0808 28.1729C33.7022 28.4451 33.2164 28.5542 32.7296 28.5542C32.4051 28.5542 32.0266 28.4992 31.703 28.336L31.4866 28.2279L31.4316 28.4992L31.8111 28.7714C32.4592 29.0437 33.1623 28.9887 33.8104 28.7714L34.1349 28.4451V28.4442Z" fill="#CC303B"/>
<path d="M34.0817 29.2599L34.1348 28.8254C33.594 29.0977 33.0532 29.2068 32.5132 29.1518C32.1887 29.0977 31.8652 29.0436 31.5407 28.8804L31.4325 29.0436L31.7029 29.3699C32.2151 29.5847 32.7798 29.6415 33.3245 29.5331L34.0807 29.2609L34.0817 29.2599Z" fill="#CC303B"/>
<path d="M33.9185 29.5872C33.2049 29.8589 32.4164 29.8589 31.7029 29.5872V29.8594L32.1346 30.0226C32.5673 30.0767 32.9459 30.0767 33.3785 30.0226L33.9194 29.8594V29.5872H33.9185Z" fill="#CC303B"/>
<path d="M28.0812 29.7503L28.3516 29.5872L28.7292 29.8594C28.9456 30.1307 28.9997 30.5121 29.0537 30.8925C29.0537 31.2188 29.2701 31.4902 29.4864 31.7083C29.7568 31.5452 30.0272 31.2729 30.1354 30.9475H30.3508L30.459 31.2729L30.4049 32.1437C30.8917 32.1978 31.3243 32.4151 31.6488 32.7414L32.0265 33.285L31.9192 33.4482C31.6488 33.34 31.3234 33.2859 30.9998 33.2309C30.6212 33.1759 30.2436 33.2309 29.865 33.34C29.216 33.6113 28.7292 34.2108 28.0812 34.4822C27.7026 34.6453 27.324 34.6994 26.9454 34.7535C26.5137 34.8085 26.1351 34.8085 25.7024 34.6994C24.6757 35.243 23.4859 35.4602 22.3511 35.5152H21.5417C20.46 35.4602 19.3252 35.243 18.3517 34.7544L17.9199 34.8085C17.4872 34.8085 17.0546 34.7535 16.6228 34.6994C16.1748 34.5787 15.7531 34.3761 15.3789 34.1017C15.0003 33.8295 14.6227 33.4491 14.1359 33.34C13.5951 33.1768 12.947 33.2309 12.4062 33.395H12.1357L12.1907 33.1227L12.5684 32.6323C12.8929 32.361 13.2715 32.1978 13.7032 32.1978C13.5951 31.8165 13.541 31.382 13.7582 31.0007H13.9737C14.0818 31.327 14.3522 31.5992 14.6227 31.7083L15.0003 31.2188L15.1094 30.6202L15.4871 29.8044L15.8657 29.6953L16.1361 29.9676C16.6769 30.5662 17.325 31.1097 17.974 31.5442C18.8456 32.0968 19.82 32.4673 20.8386 32.6332C22.4611 32.9046 24.244 32.6332 25.7033 31.8174C26.3042 31.4811 26.8661 31.0797 27.379 30.6202L28.0821 29.7494L28.0812 29.7503Z" fill="#221715"/>
<path d="M15.3779 30.0227L15.5943 29.8046L15.7565 29.9677C16.364 30.6331 17.0541 31.218 17.8099 31.7085C18.7369 32.3093 19.7929 32.6822 20.8917 32.7966C22.5142 33.0138 24.1889 32.7416 25.6492 31.9257C26.2973 31.5453 26.9454 31.1099 27.4862 30.5663C27.7566 30.2941 28.027 30.0227 28.3515 29.7505L28.7833 30.4032L28.8914 31.164L29.1619 31.6544C28.8082 31.7508 28.4774 31.9173 28.1893 32.1439C27.8648 32.3612 27.5944 32.6875 27.3239 32.9597C26.9454 33.3402 26.5677 33.7206 26.135 33.9928C25.6096 34.3622 25.0245 34.6381 24.4053 34.8087C23.6675 35.0235 22.9031 35.1333 22.1347 35.135C21.1621 35.135 20.1895 35.08 19.2701 34.7537C18.5014 34.4842 17.7873 34.0791 17.1618 33.5574C16.7832 33.2311 16.5137 32.9047 16.1892 32.5784C15.8647 32.2521 15.432 31.9807 14.9994 31.7626L14.7299 31.6544L15.0544 30.9467C15.1625 30.6204 15.1625 30.2941 15.3779 30.0227Z" fill="#CC303B"/>
<path d="M27.5403 30.6203L27.7026 30.5112L27.7567 31.0016L27.5403 31.4361V31.6543L27.6485 32.252L27.4863 32.7415L27.5413 31.9806L27.324 31.3821L27.6485 30.9466V30.7835L27.5403 30.6203ZM15.1626 31.0557L15.2698 30.9466L15.5943 31.4361L16.3515 31.6543L16.8923 31.7084V32.0347L16.2433 32.1979L16.1352 31.8716L16.027 31.7625L15.4862 31.5452L15.1626 31.0557ZM27.973 31.4361L27.918 31.1098L28.0271 31.1648L27.9721 31.4361H27.973Z" fill="#FAD200"/>
<path d="M13.7024 31.219L13.9728 31.5453L14.3514 31.8176L14.5677 32.2521L15.378 32.9597C15.8107 33.2311 16.2434 33.5033 16.7292 33.6656L17.0537 33.7756C17.3241 34.0469 17.6486 34.2651 17.9731 34.4814C17.4873 34.5364 17.0537 34.4814 16.5679 34.3732C16.1893 34.3182 15.8107 34.1019 15.4862 33.8837C15.1085 33.6124 14.73 33.2311 14.2432 33.0679C13.7766 32.8954 13.2708 32.8579 12.7839 32.9597L12.243 33.0679C12.4594 32.7416 12.7289 32.5243 13.1084 32.4152L13.6492 32.3071L13.7565 32.1971C13.7024 31.8717 13.6483 31.5453 13.7024 31.219ZM30.1355 31.3822L30.2427 31.2731C30.2977 31.5994 30.2427 31.8717 30.1895 32.198L30.2968 32.3612C30.8376 32.3612 31.4325 32.6334 31.703 33.122L30.9458 33.0138C30.5131 32.9588 30.0273 33.0138 29.5946 33.2311C28.9997 33.5033 28.568 34.0469 27.9721 34.3192C27.5945 34.4823 27.1618 34.5364 26.73 34.5914H25.9729L26.3515 34.3192L26.9995 33.8297C27.5404 33.7747 28.0262 33.5033 28.513 33.177L29.3242 32.5243L29.7028 31.9257L30.1355 31.3822Z" fill="#CC303B"/>
<path d="M26.5678 31.7624L26.8373 31.5452L27.1077 31.6543L27.27 32.3069L27.1618 32.9046L26.9455 33.34L26.7832 33.4491L26.9996 33.0137L27.2159 32.3069L27.1618 31.9806H27.1077L26.8382 32.361L26.6219 32.0347L26.7832 32.0897L26.9455 31.7083L26.8382 31.7633L26.6219 31.9806L26.5669 31.7624H26.5678ZM17.4323 31.6543H17.5946L17.6486 31.8715L17.5405 32.4151L17.2701 32.7414V32.8505L17.5405 32.7955L18.0263 32.3069L18.2976 32.1437L18.2426 32.3069L17.9191 33.0678L18.1895 33.3941L18.7835 33.5572L19.108 33.2309L19.2161 33.2859L19.108 33.5572L19.2702 33.7204L19.4866 33.7754L19.7029 33.5032L19.757 33.6663L19.8111 33.9386H20.0274L20.1896 33.6663L20.2969 33.7213L20.4591 34.1017L20.7296 34.2099L20.7846 34.0468V33.1759H21V33.6123L20.8377 34.2099L20.3519 34.3731L20.1346 34.1558H19.757L19.4866 34.0468L19.1621 33.9917L18.8916 33.7204L18.2976 33.6654L17.7568 33.34L17.7018 32.9596L17.5946 32.9046L17.216 32.9596L16.7842 32.8496L16.4056 32.4701L16.8915 32.6333L17.216 32.5782L17.4864 32.1978L17.4323 31.6543Z" fill="#FAD200"/>
<path d="M16.5137 31.7625L16.676 31.9806L16.5137 32.0888V31.7625ZM14.784 32.2519L14.5676 31.8715L15.1616 32.0888C15.4861 32.252 15.8106 32.4701 16.081 32.7415L16.7291 33.3941C16.3515 33.286 15.9729 33.0678 15.5943 32.8505L14.784 32.2519ZM28.7833 32.0888L29.4323 31.8715L28.8915 32.4701C28.4597 32.7964 27.973 33.1228 27.4862 33.34L27.2699 33.395L27.973 32.6874C28.1893 32.4701 28.4588 32.307 28.7833 32.0888Z" fill="#CC303B"/>
<path d="M25.9187 32.0347L25.9728 32.0897L26.135 32.1978L26.0269 32.361L25.9728 32.2519L25.9187 32.0347ZM25.7024 32.0897L25.7574 32.1437V32.3069H25.6483L25.7033 32.0888L25.7024 32.0897ZM26.135 32.361L26.2432 32.1978L26.3514 32.5782L26.6218 32.6873L26.5668 32.7964L26.2973 32.8505L25.9728 32.9596L26.0269 32.8496L26.2432 32.6333L26.135 32.361ZM26.1891 33.3941L26.4595 32.9046L26.5677 32.9596L26.5127 33.285L25.9728 33.7754C25.7024 33.9386 25.432 34.0468 25.1075 33.9927L24.838 33.6663L24.892 33.2859L25.0543 33.7204L25.5951 33.7754L26.1891 33.3941ZM21.5407 33.3391L21.703 33.1768L21.757 33.7754L21.702 34.3731L21.5948 34.4281V33.8836L21.5398 33.34L21.5407 33.3391ZM22.5674 33.2309L22.6755 33.34L22.8378 34.0468L22.7828 34.5362L22.7296 34.5913L22.6755 34.0468L22.5133 33.34L22.5674 33.2309ZM23.3786 33.6113V33.34L23.8104 33.9927L23.2164 34.4272L23.0541 34.319L23.595 34.1017L23.7563 33.9386L23.3786 33.6113ZM26.2973 33.6663L26.4595 33.7213H26.2432L26.2973 33.6663Z" fill="#FAD200"/>
<path d="M22.1888 33.8296L22.297 34.0468L21.9184 34.6454C21.5948 34.8627 21.1622 34.8627 20.7836 34.7004L20.7295 34.6454C21.054 34.5904 21.3785 34.7004 21.703 34.5904L22.0807 34.265L22.1888 33.8296Z" fill="#FAD200"/>
</g>
<defs>
<clipPath id="clip0_2059_157">
<rect width="44" height="44" fill="white"/>
</clipPath>
</defs>
</svg>
