<svg width="44" height="44" viewBox="0 0 44 44" fill="none" xmlns="http://www.w3.org/2000/svg">
<g clip-path="url(#clip0_2056_64)">
<path d="M21.9962 0C9.87583 0 0 9.87754 0 22C0 34.1225 9.87583 44 21.9962 44C34.1165 44 43.9923 34.1225 43.9923 22C43.9923 9.87754 34.3409 0 21.9962 0Z" fill="#FAFAFA"/>
<path d="M32.7698 2.83984V41.4521C39.5033 37.6357 43.9923 30.4521 43.9923 22.146C44.2168 13.8399 39.5033 6.6562 32.7698 2.83989M30.3008 18.7787C27.383 19.2276 27.1585 19.6766 27.1585 17.6562C26.2607 18.5541 25.1385 20.35 24.4651 20.7991C24.0162 21.248 23.7917 20.7991 24.0162 20.5746C24.0162 20.35 25.5874 17.2072 25.5874 15.6358C24.0162 16.7583 23.3428 16.0848 21.7717 12.4929C20.425 15.8603 19.5272 16.5337 17.956 15.6358C18.1805 17.4317 19.5272 20.35 19.5272 20.5746C19.5272 20.7991 19.5272 21.248 19.0783 20.7991C18.4049 20.35 17.2827 18.3297 16.3849 17.6562C16.6093 19.6766 16.1604 19.2276 13.2426 18.7787C13.467 21.0235 14.3648 21.9215 12.5692 22.3705C16.8338 26.1868 17.0582 26.4113 15.4871 28.2072C18.8538 27.7582 20.8739 26.8603 20.8739 26.8603C21.0984 26.8603 21.0984 27.0848 21.0984 27.0848V32.248H22.4451V27.0848C22.4451 26.8603 22.4451 26.6357 22.6695 26.8603C22.6695 26.8603 24.4651 27.7582 28.0563 28.2072C26.4852 26.6358 26.7096 26.1868 30.9742 22.3705C29.403 21.9215 30.0764 21.0235 30.3008 18.7787ZM11.2225 2.83984V41.4521C4.48897 37.6357 0 30.4521 0 22.146C0 13.8399 4.48897 6.6562 11.2225 2.83989" fill="#EB0000"/>
</g>
<defs>
<clipPath id="clip0_2056_64">
<rect width="44" height="44" fill="white"/>
</clipPath>
</defs>
</svg>
