<svg width="44" height="44" viewBox="0 0 44 44" fill="none" xmlns="http://www.w3.org/2000/svg">
<g clip-path="url(#clip0_2055_40)">
<path d="M0 22C0 27.8348 2.31785 33.4305 6.44365 37.5564C10.5695 41.6822 16.1652 44 22 44C27.8348 44 33.4305 41.6822 37.5564 37.5564C41.6822 33.4305 44 27.8348 44 22C44 16.1652 41.6822 10.5695 37.5564 6.44365C33.4305 2.31785 27.8348 0 22 0C16.1652 0 10.5695 2.31785 6.44365 6.44365C2.31785 10.5695 0 16.1652 0 22Z" fill="#F42F4C"/>
<path d="M35.761 17.8476H26.1525V8.23633H17.8448V17.8476H8.23901V26.1581H17.8475V35.7638H26.158V26.1526H35.7638L35.761 17.8476Z" fill="white"/>
</g>
<defs>
<clipPath id="clip0_2055_40">
<rect width="44" height="44" fill="white"/>
</clipPath>
</defs>
</svg>
