<svg width="44" height="44" viewBox="0 0 44 44" fill="none" xmlns="http://www.w3.org/2000/svg">
<g clip-path="url(#clip0_2056_151)">
<mask id="mask0_2056_151" style="mask-type:alpha" maskUnits="userSpaceOnUse" x="0" y="0" width="44" height="44">
<circle cx="22" cy="22" r="22" fill="#D9D9D9"/>
</mask>
<g mask="url(#mask0_2056_151)">
<path d="M0 -0.216797H72.2051V44.2171H0V-0.216797Z" fill="#D71618"/>
</g>
<path d="M11.6639 17.6399L16.1073 20.8613L14.4132 15.6403L18.8566 12.3911H13.3579L11.6639 7.14235L9.94206 12.3911H4.44336L8.88675 15.6403L7.19271 20.8613L11.6639 17.6399ZM24.7163 7.97549L26.7714 7.47561L24.8274 6.67024L24.9663 4.5874L23.6333 6.19813L21.6615 5.39277L22.7724 7.17012L21.4393 8.78085L23.4666 8.28097L24.5775 10.0583L24.7163 7.97549ZM24.7163 25.4436L26.7714 24.9437L24.8274 24.1661L24.9663 22.0555L23.6333 23.6662L21.6615 22.8609L22.7724 24.666L21.4393 26.2767L23.4666 25.7768L24.5775 27.5542L24.7163 25.4436ZM29.6041 13.4186L31.6869 13.7519L30.215 12.2523L31.187 10.3916L29.2986 11.3358L27.8545 9.80839L28.1322 11.8912L26.2715 12.8354L28.3266 13.1965L28.6321 15.2793L29.6041 13.4186ZM28.9653 20.9446L30.6871 22.111L29.9929 20.1393L31.6314 18.834L29.5485 18.9173L28.8265 16.9178L28.2433 18.9451L26.1327 19.0284L27.8823 20.1948L27.2991 22.2221L28.9653 20.9446Z" fill="#FFF100"/>
</g>
<defs>
<clipPath id="clip0_2056_151">
<rect width="44" height="44" fill="white"/>
</clipPath>
</defs>
</svg>
