<svg width="44" height="44" viewBox="0 0 44 44" fill="none" xmlns="http://www.w3.org/2000/svg">
<g clip-path="url(#clip0_2055_30)">
<path d="M0 22C0 27.8348 2.31785 33.4305 6.44365 37.5564C10.5695 41.6822 16.1652 44 22 44C27.8348 44 33.4305 41.6822 37.5564 37.5564C41.6822 33.4305 44 27.8348 44 22C44 16.1652 41.6822 10.5695 37.5564 6.44365C33.4305 2.31785 27.8348 0 22 0C16.1652 0 10.5695 2.31785 6.44365 6.44365C2.31785 10.5695 0 16.1652 0 22Z" fill="#F0F0F0"/>
<path d="M4.54774 8.60588C2.81962 10.8543 1.51655 13.4457 0.757812 16.2609H12.2028L4.54774 8.60588ZM43.242 16.2609C42.4833 13.4458 41.1801 10.8544 39.4521 8.60597L31.7972 16.2609H43.242ZM0.757812 27.7392C1.51664 30.5543 2.81971 33.1458 4.54774 35.3941L12.2025 27.7392H0.757812ZM35.394 4.54783C33.1456 2.81971 30.5542 1.51664 27.739 0.757812V12.2027L35.394 4.54783ZM8.60588 39.452C10.8543 41.1801 13.4457 42.4832 16.2609 43.242V31.7972L8.60588 39.452ZM16.2608 0.757812C13.4456 1.51664 10.8542 2.81971 8.60588 4.54774L16.2608 12.2026V0.757812ZM27.7391 43.242C30.5542 42.4832 33.1457 41.1801 35.394 39.4521L27.7391 31.7972V43.242ZM31.7972 27.7392L39.4521 35.3941C41.1801 33.1459 42.4833 30.5543 43.242 27.7392H31.7972Z" fill="#0052B4"/>
<path d="M43.8138 19.1305H24.8696V0.186227C23.9181 0.0622536 22.9596 4.7799e-05 22 0C21.0405 3.93553e-05 20.0819 0.0622452 19.1305 0.186227V19.1304H0.186227C0.0622536 20.0819 4.7799e-05 21.0404 0 22C0 22.9727 0.0639375 23.9302 0.186227 24.8695H19.1304V43.8138C21.0354 44.0621 22.9645 44.0621 24.8695 43.8138V24.8696H43.8138C43.9378 23.9181 44 22.9596 44 22C44 21.0274 43.9361 20.0698 43.8138 19.1305Z" fill="#D80027"/>
<path d="M27.7391 27.7393L37.5562 37.5565C38.0075 37.1046 38.439 36.6334 38.8494 36.1441L30.4445 27.7392H27.7391V27.7393ZM16.2607 27.7393H16.2606L6.44349 37.5564C6.89534 38.0077 7.36658 38.4392 7.85588 38.8496L16.2607 30.4445V27.7393ZM16.2607 16.2611V16.2609L6.44358 6.44365C5.99227 6.8955 5.5608 7.36674 5.15039 7.85603L13.5553 16.261H16.2607V16.2611ZM27.7391 16.2611L37.5563 6.44374C37.1045 5.99243 36.6332 5.56099 36.1439 5.15063L27.7391 13.5556V16.2611Z" fill="#D80027"/>
</g>
<defs>
<clipPath id="clip0_2055_30">
<rect width="44" height="44" fill="white"/>
</clipPath>
</defs>
</svg>
