<svg width="44" height="44" viewBox="0 0 44 44" fill="none" xmlns="http://www.w3.org/2000/svg">
<g clip-path="url(#clip0_2056_134)">
<path d="M0 22C0 27.8348 2.31785 33.4305 6.44365 37.5564C10.5695 41.6822 16.1652 44 22 44C27.8348 44 33.4305 41.6822 37.5564 37.5564C41.6822 33.4305 44 27.8348 44 22C44 16.1652 41.6822 10.5695 37.5564 6.44365C33.4305 2.31785 27.8348 0 22 0C16.1652 0 10.5695 2.31785 6.44365 6.44365C2.31785 10.5695 0 16.1652 0 22Z" fill="#D80027"/>
<path d="M24.2713 16.6434C23.7713 18.723 22.883 18.3264 22.447 20.14C19.879 19.5225 18.2974 16.9401 18.9148 14.3719C19.532 11.8038 22.1147 10.2222 24.6829 10.8397C23.8109 14.4668 24.7186 14.7834 24.2713 16.6434ZM17.6075 18.1844C19.4308 19.3024 18.779 20.0249 20.3691 21C18.9882 23.2517 16.0436 23.9577 13.7918 22.5769C11.5402 21.1962 10.834 18.2513 12.2149 15.9997C15.3951 17.9498 15.9764 17.1843 17.6075 18.1844ZM17.0137 24.9985C18.6406 23.61 19.1261 24.453 20.5448 23.2422C22.2597 25.2511 22.0211 28.2699 20.0122 29.9848C18.0032 31.6997 14.9844 31.4609 13.2698 29.4521C16.1069 27.0301 15.5585 26.2404 17.0137 24.9985ZM23.3109 27.6689C22.4927 25.6926 23.4446 25.4911 22.7314 23.7678C25.1719 22.7578 27.9694 23.9174 28.9795 26.358C29.9895 28.7985 28.8297 31.5959 26.3891 32.606C24.9628 29.1591 24.0425 29.4366 23.3109 27.6689ZM27.7965 22.505C25.6641 22.6723 25.7664 21.7046 23.9072 21.8506C23.7007 19.2175 25.6681 16.9152 28.3013 16.7085C30.9345 16.5023 33.2367 18.4696 33.4432 21.1029C29.724 21.3945 29.7035 22.3555 27.7965 22.505Z" fill="#F0F0F0"/>
</g>
<defs>
<clipPath id="clip0_2056_134">
<rect width="44" height="44" fill="white"/>
</clipPath>
</defs>
</svg>
