<svg width="44" height="44" viewBox="0 0 44 44" fill="none" xmlns="http://www.w3.org/2000/svg">
<g clip-path="url(#clip0_2117_11)">
<path d="M0 22C0 27.8348 2.31785 33.4305 6.44365 37.5564C10.5695 41.6822 16.1652 44 22 44C27.8348 44 33.4305 41.6822 37.5564 37.5564C41.6822 33.4305 44 27.8348 44 22C44 16.1652 41.6822 10.5695 37.5564 6.44365C33.4305 2.31785 27.8348 0 22 0C16.1652 0 10.5695 2.31785 6.44365 6.44365C2.31785 10.5695 0 16.1652 0 22Z" fill="white"/>
<path d="M22 0C9.9 0 0 9.9 0 22H44C44 9.9 34.1 0 22 0Z" fill="#C9392B"/>
</g>
<defs>
<clipPath id="clip0_2117_11">
<rect width="44" height="44" fill="white"/>
</clipPath>
</defs>
</svg>
