<svg width="44" height="44" viewBox="0 0 44 44" fill="none" xmlns="http://www.w3.org/2000/svg">
<g clip-path="url(#clip0_2059_261)">
<path d="M21.9099 0C12.6501 0 4.80852 5.7024 1.42639 13.8923H42.2166C39.1916 5.7024 31.1741 0 21.9099 0Z" fill="#FF9933"/>
<path d="M1.25037 29.0386C4.09937 37.7652 12.474 44.0008 22.0902 44.0008C31.7064 44.0008 39.9007 37.766 42.9301 29.0386H1.25037Z" fill="#138808"/>
<path d="M44 22.0903C44 19.242 43.4669 16.3886 42.3977 13.8967H1.6016C0.533867 16.393 0 19.242 0 22.091C0 24.5873 0.3564 26.8987 1.24667 29.0386H42.7497C43.6436 26.8987 44 24.4069 44 22.091V22.0903Z" fill="white"/>
<path d="M28.3683 19.3144L27.6936 19.104L28.0801 18.7344L28.7547 18.9448L28.3683 19.3144ZM29.0341 20.9219L28.4841 20.6212L29.0341 20.3206L29.5885 20.6212L29.0341 20.9219ZM28.9227 22.5719L28.5267 22.1979L29.2013 21.9874L29.5922 22.357L28.9227 22.5719ZM28.0155 24.1486L27.8139 23.732L28.5699 23.6242L28.776 24.0371C28.776 24.0327 28.0155 24.1486 28.0155 24.1486Z" fill="#000066"/>
<path d="M28.0588 19.3146L27.6892 19.1041L27.8997 18.7345L28.2693 18.945L28.0588 19.3146ZM28.424 20.922L28.1233 20.617L28.424 20.3163L28.7247 20.617L28.424 20.922ZM28.3595 22.572L28.1446 22.198L28.5142 21.9876L28.7291 22.3572C28.7247 22.3572 28.3595 22.572 28.3595 22.572ZM27.8696 24.1487L27.7618 23.7322L28.1747 23.6244L28.2861 24.0372L27.8696 24.1487ZM21.5483 15.1984L21.2476 15.5034L20.9433 15.1984L21.2483 14.8977L21.549 15.1984H21.5483ZM23.2034 15.2673L22.8338 15.4778L22.6233 15.1082L22.9922 14.8977L23.2034 15.2673ZM24.7757 15.7528L24.3635 15.8642L24.2557 15.4521L24.6686 15.3406L24.7757 15.7528ZM25.7466 16.2082H26.1719V16.6335H25.7466V16.2082ZM27.2895 17.8494L26.8767 17.7379L26.9889 17.325L27.401 17.4372L27.2895 17.8494ZM26.9933 25.545V25.1196H27.4186V25.545H26.9933ZM25.7767 26.6626L25.8845 26.2497L26.2966 26.3619L26.1895 26.774L25.7767 26.6626ZM24.3159 27.4318L24.5307 27.0622L24.9003 27.2727L24.6899 27.6423C24.6855 27.6423 24.3159 27.4318 24.3159 27.4318ZM22.7003 27.797L23.0054 27.4964L23.3061 27.797L23.0054 28.0977L22.7003 27.797ZM21.0547 27.7325L21.4287 27.5176L21.6392 27.8872L21.2696 28.0977C21.2696 28.0933 21.0547 27.7325 21.0547 27.7325ZM19.4737 27.2426L19.8858 27.1312L19.9936 27.5433L19.5807 27.6548L19.4737 27.2426ZM18.0767 26.3619H18.502V26.7872H18.0767V26.3619ZM16.9598 25.1453L17.3727 25.2575L17.2605 25.6696L16.8483 25.5582L16.9598 25.1453ZM16.1905 23.6845L16.5601 23.8957L16.3453 24.2646L15.9757 24.0541L16.1905 23.6845ZM15.8297 22.0734L16.1348 22.374L15.8297 22.6747L15.5291 22.374L15.8297 22.0734ZM15.8899 20.4278L16.1047 20.8018L15.7351 21.0122L15.5247 20.6426L15.8899 20.4278ZM15.9713 18.9626L16.3841 18.8511L16.4956 19.2632L16.0835 19.3747L15.9713 18.9626ZM17.2649 17.4497V17.875H16.8395V17.4497H17.2649ZM18.4763 16.3328L18.3693 16.7457L17.9564 16.6335L18.0642 16.2214L18.4763 16.3328ZM19.9415 15.5636L19.7311 15.9376L19.3615 15.7271L19.5719 15.3575L19.9415 15.5636ZM21.9956 21.4808L22.176 18.9626L21.978 15.1727L21.802 18.967L21.9956 21.4801V21.4808ZM21.9956 21.4808L22.8206 19.0916L23.6111 15.3788L22.4598 18.997C22.4554 19.0014 21.9956 21.4801 21.9956 21.4801V21.4808Z" fill="#000066"/>
<path d="M21.9956 21.4802L23.4095 19.3924L25.1365 16.011L23.0831 19.2076L21.9956 21.4809V21.4802ZM21.9956 21.4802L23.9037 19.8302L26.4433 17.0069L23.6368 19.5684L21.9956 21.4802ZM21.9956 21.4802L24.2645 20.3765L27.4443 18.3137L24.0709 20.0583C24.0753 20.0583 21.9956 21.4809 21.9956 21.4809V21.4802ZM21.9956 21.4802L24.4706 20.9991L28.0845 19.8258L24.376 20.6339L21.9956 21.4802Z" fill="#000066"/>
<path d="M21.9956 21.48L24.5139 21.6611L28.3037 21.4631L24.5139 21.2871L21.9956 21.4807V21.48ZM21.9956 21.48L24.3848 22.305L28.1013 23.0962L24.4838 21.9449L21.9956 21.48ZM21.9956 21.48L24.0885 22.8982L27.4699 24.626L24.2726 22.58L21.9956 21.48ZM21.9956 21.48L23.6456 23.3881L26.4689 25.932L23.9081 23.1219C23.9118 23.1219 21.9956 21.48 21.9956 21.48ZM21.9956 21.48L23.1 23.7489L25.1665 26.9286L23.4227 23.5553C23.4227 23.5597 21.9956 21.48 21.9956 21.48ZM21.9956 21.48L22.4723 23.9594L23.6456 27.5688L22.8382 23.8611L21.9956 21.4807V21.48Z" fill="#000066"/>
<path d="M22.077 21.48L21.8922 23.9983L22.1034 27.7925L22.2882 23.9983L22.077 21.48ZM22.077 21.48L21.2095 23.8655L20.3757 27.5821L21.5872 23.9638L22.077 21.4807V21.48ZM21.9964 21.48L20.5774 23.5693L18.8584 26.9507L20.9037 23.7541L21.9949 21.4807L21.9964 21.48ZM21.9964 21.48L20.0882 23.13L17.5436 25.9533L20.3544 23.4013L21.9956 21.48H21.9964ZM21.9964 21.48L19.7267 22.5844L16.5389 24.6517L19.9122 22.9063L21.9956 21.48H21.9964ZM21.9964 21.48L19.5206 21.9618L15.9068 23.1351L19.6152 22.327C20.4078 22.0421 21.2012 21.7597 21.9956 21.48H21.9964ZM21.9964 21.48L19.4818 21.2996L15.6882 21.502L19.4818 21.678L21.9956 21.48H21.9964ZM21.9964 21.48L19.6108 20.655L15.8987 19.8689L19.5162 21.0165L21.9956 21.4807L21.9964 21.48ZM21.9964 21.48L19.9071 20.0625L16.5264 18.3435L19.7223 20.3895C19.7186 20.3895 21.9956 21.4807 21.9956 21.4807L21.9964 21.48ZM21.9964 21.48L20.3464 19.5726L17.523 17.0331L20.0838 19.8388C20.0794 19.8388 21.9956 21.48 21.9956 21.48H21.9964ZM21.9964 21.48L20.8912 19.2118L18.8247 16.0321L20.5693 19.4054L21.9956 21.4807L21.9964 21.48ZM21.9964 21.48L21.519 19.0013L20.3412 15.3875L21.1538 19.0996L21.9956 21.48H21.9964Z" fill="#000066"/>
<path d="M23.9807 14.5837C22.6121 14.2159 21.1651 14.263 19.8233 14.7189C18.4815 15.1748 17.3054 16.0191 16.4442 17.1445C15.5832 18.269 15.0743 19.6231 14.9817 21.0363C14.889 22.4495 15.2168 23.8586 15.9236 25.0858C16.6323 26.3121 17.6885 27.3008 18.9589 27.9271C20.2293 28.5534 21.6568 28.789 23.0611 28.6043C24.4662 28.4206 25.7851 27.8234 26.85 26.8884C27.915 25.9535 28.678 24.7232 29.0422 23.3537C29.2859 22.445 29.348 21.4972 29.2249 20.5645C29.1018 19.6318 28.796 18.7326 28.325 17.9182C27.8564 17.1034 27.2314 16.3894 26.4858 15.8171C25.7403 15.2448 24.8889 14.8257 23.9807 14.5837ZM20.479 27.6297C19.2662 27.3046 18.1769 26.6272 17.3489 25.6832C16.521 24.7392 15.9914 23.5709 15.8272 22.326C15.663 21.0811 15.8716 19.8155 16.4265 18.6891C16.9814 17.5627 17.8578 16.6261 18.9449 15.9976C20.0316 15.369 21.2804 15.077 22.5332 15.1585C23.7859 15.24 24.9863 15.6915 25.9824 16.4556C26.9784 17.2198 27.7253 18.2623 28.1285 19.4513C28.5317 20.6402 28.573 21.922 28.2472 23.1344C27.3496 26.5246 23.8692 28.5361 20.479 27.6297Z" fill="#000066"/>
<path d="M23.3581 21.8284C23.4623 22.0099 23.5201 22.2142 23.5266 22.4234C23.5331 22.6325 23.488 22.84 23.3952 23.0276C23.3025 23.2152 23.165 23.3771 22.9949 23.4989C22.8248 23.6208 22.6274 23.6989 22.4199 23.7263C22.2125 23.7538 22.0015 23.7298 21.8056 23.6563C21.6096 23.5829 21.4348 23.4624 21.2964 23.3054C21.1581 23.1485 21.0605 22.9598 21.0124 22.7562C20.9642 22.5526 20.9669 22.3402 21.0203 22.1379C20.8945 21.9185 20.8364 21.6668 20.8533 21.4145C20.8701 21.1622 20.9611 20.9204 21.1149 20.7196C21.2685 20.5188 21.4785 20.3683 21.718 20.2873C21.9576 20.2063 22.2158 20.1985 22.4598 20.265C22.7859 20.3537 23.0635 20.5681 23.2319 20.8612C23.4003 21.1542 23.4457 21.502 23.3581 21.8284ZM24.7757 15.7528L24.3635 15.8642L24.2557 15.4521L24.6686 15.3406L24.7757 15.7528ZM25.7466 16.2082H26.1719V16.6335H25.7466V16.2082ZM27.2895 17.8494L26.8767 17.7379L26.9889 17.325L27.401 17.4372L27.2895 17.8494ZM26.9933 25.545V25.1196H27.4186V25.545H26.9933ZM25.7767 26.6626L25.8845 26.2497L26.2966 26.3619L26.1895 26.774L25.7767 26.6626ZM24.3159 27.4318L24.5307 27.0622L24.9003 27.2727L24.6899 27.6423C24.6855 27.6423 24.3159 27.4318 24.3159 27.4318ZM22.7003 27.797L23.0054 27.4964L23.3061 27.797L23.0054 28.0977L22.7003 27.797ZM21.0547 27.7325L21.4287 27.5176L21.6392 27.8872L21.2696 28.0977C21.2696 28.0933 21.0547 27.7325 21.0547 27.7325ZM19.4737 27.2426L19.8858 27.1312L19.9936 27.5433L19.5807 27.6548L19.4737 27.2426ZM18.0767 26.3619H18.502V26.7872H18.0767V26.3619ZM16.9598 25.1453L17.3727 25.2575L17.2605 25.6696L16.8483 25.5582L16.9598 25.1453ZM16.1905 23.6845L16.5601 23.8957L16.3453 24.2646L15.9757 24.0541L16.1905 23.6845ZM15.8297 22.0734L16.1348 22.374L15.8297 22.6747L15.5291 22.374L15.8297 22.0734ZM15.8899 20.4278L16.1047 20.8018L15.7351 21.0122L15.5247 20.6426L15.8899 20.4278ZM15.9713 18.9626L16.3841 18.8511L16.4956 19.2632L16.0835 19.3747L15.9713 18.9626ZM17.2649 17.4497V17.875H16.8395V17.4497H17.2649ZM18.4763 16.3328L18.3693 16.7457L17.9564 16.6335L18.0642 16.2214L18.4763 16.3328ZM19.9415 15.5636L19.7311 15.9376L19.3615 15.7271L19.5719 15.3575L19.9415 15.5636ZM21.549 15.1984L21.2483 15.5034L20.9433 15.1984L21.2483 14.8977L21.549 15.1984Z" fill="#000066"/>
</g>
<defs>
<clipPath id="clip0_2059_261">
<rect width="44" height="44" fill="white"/>
</clipPath>
</defs>
</svg>
