<svg width="44" height="44" viewBox="0 0 44 44" fill="none" xmlns="http://www.w3.org/2000/svg">
<g clip-path="url(#clip0_2055_46)">
<path d="M42.2689 13.4359C41.1614 10.8173 39.5767 8.46202 37.5548 6.44465C35.5359 4.4248 33.1825 2.83724 30.5632 1.72917C27.8506 0.58136 24.9701 0 21.9991 0C19.0282 0 16.1476 0.58136 13.4353 1.72917C10.816 2.83724 8.46282 4.4248 6.44368 6.44465C4.43136 8.45252 2.83067 10.8265 1.72983 13.4359C0.582639 16.1489 0 19.0284 0 21.9998C0 24.9711 0.582639 27.8506 1.73034 30.5636C2.83176 33.1727 4.43238 35.5467 6.44418 37.5551C8.46333 39.5752 10.8165 41.1628 13.4358 42.2683C16.1481 43.4159 19.0287 44 21.9996 44C24.9706 44 27.8511 43.4159 30.5634 42.2683C33.1833 41.1628 35.5362 39.5752 37.5556 37.5551C39.568 35.5472 41.1687 33.1731 42.2694 30.5636C43.4171 27.8506 44 24.9711 44 21.9998C43.9997 19.0284 43.4166 16.1489 42.2689 13.4359ZM21.9996 43.8554C9.94755 43.8554 0.143148 34.0518 0.143148 21.9998C0.143148 9.94771 9.94755 0.144098 21.9996 0.144098C34.0517 0.144098 43.8561 9.94771 43.8561 21.9998C43.8561 34.0518 34.0517 43.8554 21.9996 43.8554Z" fill="#E0E0E0"/>
<path d="M21.9995 1.14282C10.5225 1.14282 1.21533 10.375 1.21533 21.7637C1.21533 33.1524 10.5225 42.3846 21.9995 42.3846C33.4764 42.3846 42.7811 33.1524 42.7811 21.7637C42.7811 10.375 33.4764 1.14282 21.9995 1.14282ZM37.4243 16.0917L36.4022 16.76L34.5289 13.9998L35.5508 13.329L37.4243 16.0917ZM33.4086 24.7972L34.4307 25.4655L32.5573 28.228L31.5351 27.5574L33.4086 24.7972ZM31.4646 16.0073L32.4844 15.3389L34.3604 18.1016L33.3385 18.77L31.4646 16.0073ZM34.9431 25.8009L35.9627 26.4717L34.0895 29.2314L33.0676 28.5636L34.9431 25.8009ZM33.336 10.0645L35.2093 12.8272L34.1876 13.498L32.3142 10.7353L33.336 10.0645ZM31.8039 11.0682L35.8924 17.0954L34.8702 17.7662L30.7817 11.739L31.8039 11.0682ZM30.2717 12.0744L32.1454 14.8371L31.1233 15.5054L29.2498 12.7427L30.2717 12.0744ZM14.9751 12.7054L10.8891 18.7302L9.86701 18.0619L13.9555 12.0346L14.9751 12.7054ZM13.4432 11.6992L9.35469 17.7265L8.33507 17.0582L12.4211 11.0309L13.4432 11.6992ZM11.2834 28.504L10.2613 29.1723L8.38781 26.4121L9.40994 25.7413L11.2834 28.504ZM10.8891 10.0247L11.9113 10.6955L7.82275 16.7228L6.80062 16.052L10.8891 10.0247ZM10.9419 33.4431L6.85336 27.4158L7.87549 26.745L11.964 32.7725L10.9419 33.4431ZM12.4763 32.4369L10.6003 29.6742L11.6225 29.0061L13.4959 31.7686L12.4763 32.4369ZM14.0083 31.4332L9.91975 25.4059L10.9419 24.7376L15.0304 30.7624L14.0083 31.4332ZM27.856 26.1065C26.5425 27.8059 24.4754 28.9015 22.1496 28.9015C18.1741 28.9015 14.9548 25.7065 14.9548 21.7637C14.9548 21.7339 14.9573 21.7066 14.9573 21.6792C15.2537 22.5165 15.7861 23.2643 16.5244 23.7513C18.2648 24.8963 20.628 24.514 21.9163 22.8618C22.946 21.3414 25.0329 20.9289 26.5749 21.9451C27.7932 22.7451 28.3181 24.6109 27.856 26.1065ZM26.9293 21.4134C25.096 20.2084 22.6097 20.6979 21.3992 22.4916C20.3269 23.8633 18.3404 24.186 16.8788 23.2221C15.5955 22.3774 15.0329 20.5289 15.4875 19.0681C15.6181 18.7526 15.7687 18.4495 15.942 18.1588L16.4091 17.4607C17.7226 15.7389 19.8045 14.6259 22.1476 14.6259C26.1231 14.6259 29.3427 17.8209 29.3427 21.7637C29.3427 22.8467 29.0966 23.8755 28.6619 24.7947C28.6119 23.4432 27.9913 22.114 26.9293 21.4134ZM29.3226 30.822L31.1958 28.0593L32.2157 28.7301L30.3422 31.4928L29.3226 30.822ZM30.852 31.8282L32.728 29.0657L33.7502 29.7338L31.8742 32.4965L30.852 31.8282ZM33.4086 33.5027L32.387 32.8319L34.2602 30.0692L35.2821 30.74L33.4086 33.5027ZM35.6236 30.2379L34.6015 29.5673L36.475 26.8046L37.4971 27.4754L35.6236 30.2379Z" fill="white"/>
<path d="M34.9488 22.1983C34.9488 15.1186 29.1511 9.38306 21.9994 9.38306C14.8478 9.38803 9.05029 15.1234 9.05029 22.1983C9.05029 29.2733 14.848 35.0089 22.0045 35.0089C29.1511 35.0089 34.9488 29.2733 34.9488 22.1983Z" fill="#EB0000"/>
</g>
<defs>
<clipPath id="clip0_2055_46">
<rect width="44" height="44" fill="white"/>
</clipPath>
</defs>
</svg>
