<svg width="44" height="44" viewBox="0 0 44 44" fill="none" xmlns="http://www.w3.org/2000/svg">
<g clip-path="url(#clip0_2209_3)">
<path d="M0 22C0 27.8348 2.31785 33.4306 6.44365 37.5564C10.5695 41.6822 16.1652 44 22 44C27.8348 44 33.4306 41.6822 37.5564 37.5564C41.6822 33.4306 44 27.8348 44 22C44 16.1652 41.6822 10.5695 37.5564 6.44365C33.4306 2.31785 27.8348 0 22 0C16.1652 0 10.5695 2.31785 6.44365 6.44365C2.31785 10.5695 0 16.1652 0 22Z" fill="white"/>
<path d="M13.2 22C13.2 24.3339 14.1271 26.5722 15.7774 28.2225C17.4277 29.8728 19.666 30.8 22 30.8C24.3339 30.8 26.5722 29.8728 28.2225 28.2225C29.8728 26.5722 30.8 24.3339 30.8 22C30.8 19.666 29.8728 17.4277 28.2225 15.7774C26.5722 14.1271 24.3339 13.2 22 13.2C19.666 13.2 17.4277 14.1271 15.7774 15.7774C14.1271 17.4277 13.2 19.666 13.2 22Z" fill="#ED4C5C"/>
</g>
<defs>
<clipPath id="clip0_2209_3">
<rect width="44" height="44" fill="white"/>
</clipPath>
</defs>
</svg>
