<svg width="44" height="44" viewBox="0 0 44 44" fill="none" xmlns="http://www.w3.org/2000/svg">
<g clip-path="url(#clip0_2059_249)">
<path d="M1.13138 16.9434L1.13212 16.9404C2.13419 12.7991 4.34334 9.0492 7.47909 6.16669C10.6148 3.28418 14.5358 1.39903 18.7441 0.750515C22.9525 0.101998 27.2585 0.719347 31.1156 2.52421C34.9727 4.32908 38.2069 7.24008 40.4077 10.8877C42.6085 14.5354 43.6765 18.7552 43.4762 23.0114C43.2759 27.2676 41.8163 31.3683 39.2827 34.7928C36.7491 38.2174 33.2558 40.8113 29.2463 42.2455C25.2367 43.6796 20.8918 43.8893 16.763 42.8479L16.76 42.8472C14.0318 42.1772 11.4626 40.975 9.19966 39.3095C6.93669 37.6441 5.02444 35.548 3.57253 33.1416C2.12062 30.7351 1.1576 28.0656 0.738695 25.2859C0.319789 22.5063 0.453232 19.6713 1.13138 16.9434Z" fill="#F7F8F8" stroke="#E7E7E7"/>
<path d="M30.6565 20.8378C30.7892 22.4576 30.4407 24.0805 29.6549 25.5029C28.8691 26.9252 27.681 28.0837 26.2397 28.8328C24.7984 29.5819 23.168 29.8884 21.5533 29.7137C19.9385 29.539 18.4113 28.8909 17.1633 27.8509C15.9152 26.8108 15.002 25.425 14.5382 23.8675C14.0743 22.31 14.0806 20.65 14.5561 19.096C15.0316 17.542 15.9552 16.1632 17.2111 15.1325C18.4669 14.1019 19.9989 13.4654 21.6149 13.3028C22.7049 13.1932 23.8058 13.302 24.8533 13.623C25.9008 13.9439 26.8738 14.4706 27.7156 15.1721C28.5574 15.8736 29.251 16.7359 29.756 17.7087C30.2609 18.6815 30.5671 19.7453 30.6565 20.8378Z" fill="#E72D14"/>
<path d="M15.2666 17.2903C14.9833 17.7561 14.7944 18.2733 14.7108 18.8122C14.6273 19.3511 14.6506 19.9012 14.7795 20.431C14.9083 20.9609 15.1402 21.4602 15.4619 21.9004C15.7836 22.3406 16.1888 22.713 16.6544 22.9965C17.12 23.28 17.6368 23.469 18.1753 23.5526C18.7138 23.6362 19.2636 23.6129 19.7931 23.484C20.3226 23.355 20.8216 23.1229 21.2615 22.801C21.7014 22.4791 22.0736 22.0736 22.3569 21.6078C22.9255 20.6633 23.8456 19.9835 24.9151 19.7179C25.9845 19.4523 27.1156 19.6226 28.0595 20.1915C29.0033 20.7604 29.6827 21.6812 29.9482 22.7513C30.2136 23.8215 30.0433 24.9533 29.4748 25.8978C28.3341 27.7831 26.4917 29.1378 24.3528 29.6639C22.214 30.1899 19.9539 29.8442 18.0697 28.7028C16.1856 27.5614 14.8318 25.7177 14.3061 23.5775C13.7804 21.4372 14.1259 19.1756 15.2666 17.2903Z" fill="#073470"/>
<path d="M8.86331 30.8754L11.0344 34.0929L12.1062 33.3504L9.93511 30.1604L8.86331 30.8754ZM8.53352 30.3254L9.60532 29.5829L7.43424 26.3929L6.36244 27.1079L8.53352 30.3254ZM4.71352 28.2354L9.35799 35.1654L10.4573 34.4229L5.78532 27.5754L4.71352 28.2354ZM8.14877 26.0629L12.6833 33.0754L13.6452 32.2504L9.11065 25.3204L8.14877 26.0629ZM36.7301 17.1254L34.559 13.8254L33.4872 14.5404L35.6308 17.8679L36.7301 17.1254ZM34.2293 13.4129L32.0582 10.2229L30.9864 11.0754L33.13 14.2929L34.2293 13.4129ZM38.9836 15.6129L40.0554 14.8979L37.8844 11.6804L36.8126 12.4229L38.9836 15.6129ZM37.5546 11.0754L35.3835 7.85791L34.3117 8.57291L36.4553 11.9004L37.5546 11.0754ZM38.379 16.0254L33.7346 9.09541L32.6353 9.81041L37.3072 16.7404L38.379 16.0254ZM34.3117 34.4779L35.3835 35.2204L37.5546 32.0029L36.4553 31.2879L34.3117 34.4779ZM36.8126 30.7654L37.8844 31.5079L40.0554 28.2904L38.9562 27.5754L36.8126 30.7654ZM34.8064 30.1604L32.6353 33.3504L33.7071 34.0929L35.8782 30.8754L34.8064 30.1604ZM38.379 27.1629L37.3072 26.4479L35.1362 29.6379L36.2354 30.3804L38.379 27.1629ZM33.13 29.0329L30.9864 32.2504L32.0582 32.9654L34.2293 29.7754L33.13 29.0329ZM34.559 29.2529L36.7301 26.0629L35.6308 25.3204L33.4872 28.5379L34.559 29.2529ZM8.14877 17.1254L9.22057 17.8679L13.6452 11.0754L12.5734 10.3604L8.14877 17.1254ZM7.54417 16.7404L12.2161 9.81041L11.1443 9.09541L6.36244 16.0254L7.54417 16.7404ZM10.5672 8.68291L9.46791 7.96791L4.68604 14.8979L5.78532 15.6129L10.5672 8.68291Z" fill="#3C3736"/>
</g>
<defs>
<clipPath id="clip0_2059_249">
<rect width="44" height="44" fill="white"/>
</clipPath>
</defs>
</svg>
