<svg width="44" height="44" viewBox="0 0 44 44" fill="none" xmlns="http://www.w3.org/2000/svg">
<g clip-path="url(#clip0_2056_72)">
<path d="M39.6 8.80005H22V13.2H42.1575C41.4781 11.6394 40.6198 10.1628 39.6 8.80005Z" fill="#ED4C5C"/>
<path d="M43.56 26.4C43.8465 24.9507 43.9939 23.4773 44 22H0C0.00613244 23.4773 0.153469 24.9507 0.44 26.4H43.56Z" fill="#F9F9F9"/>
<path d="M22 0V4.4H35.2C31.3919 1.54391 26.7601 0 22 0Z" fill="#ED4C5C"/>
<path d="M22 8.7999H39.6C38.3617 7.12135 36.8786 5.63816 35.2 4.3999H22V8.7999ZM42.1575 13.1999H22V17.5999H43.56C43.251 16.0874 42.7808 14.6123 42.1575 13.1999Z" fill="#F9F9F9"/>
<path d="M21.9999 17.6001V22.0001H43.9999C43.9938 20.5228 43.8465 19.0494 43.5599 17.6001H21.9999ZM1.84244 30.8001H42.1574C42.7807 29.3877 43.2509 27.9126 43.5599 26.4001H0.439941C0.748971 27.9126 1.21915 29.3877 1.84244 30.8001Z" fill="#ED4C5C"/>
<path d="M4.40003 35.2H39.6C40.6199 33.8373 41.4781 32.3607 42.1575 30.8H1.84253C2.52194 32.3607 3.38019 33.8373 4.40003 35.2Z" fill="#F9F9F9"/>
<path d="M4.40002 35.2C5.65333 36.8655 7.13448 38.3466 8.80002 39.5999H35.2C36.872 38.3541 38.3541 36.8719 39.6 35.2H4.40002Z" fill="#ED4C5C"/>
<path d="M8.80005 39.6001C12.6082 42.4562 17.2399 44.0001 22 44.0001C26.7602 44.0001 31.3919 42.4562 35.2001 39.6001H8.80005Z" fill="#F9F9F9"/>
<path d="M22 0C16.1652 0 10.5695 2.31785 6.44365 6.44365C2.31785 10.5695 0 16.1652 0 22H22V0Z" fill="#2A5F9E"/>
<path d="M13.1175 17.2974C12.0235 17.2974 10.9743 16.8628 10.2007 16.0893C9.42709 15.3157 8.99249 14.2665 8.99249 13.1724C8.99249 12.0784 9.42709 11.0292 10.2007 10.2556C10.9743 9.48204 12.0235 9.04744 13.1175 9.04744C13.9347 9.03929 14.7335 9.28954 15.4 9.76244C14.936 9.21479 14.3591 8.77395 13.7088 8.47016C13.0585 8.16637 12.3502 8.00682 11.6325 8.00244C10.2686 8.00244 8.9606 8.54424 7.99619 9.50864C7.03179 10.4731 6.48999 11.7811 6.48999 13.1449C6.48999 14.5088 7.03179 15.8168 7.99619 16.7812C8.9606 17.7456 10.2686 18.2874 11.6325 18.2874C12.3524 18.2797 13.062 18.1158 13.7125 17.8072C14.3629 17.4986 14.9386 17.0526 15.4 16.4999C14.7436 17.0023 13.9439 17.2817 13.1175 17.2974ZM17.6 12.3199L18.095 10.9999L17.9575 12.4299L18.975 11.4399L18.26 12.6499L19.58 12.2099L18.425 13.0074L19.8 13.1999L18.425 13.3924L19.58 14.1899L18.26 13.7499L18.975 14.9599L17.9575 13.9699L18.095 15.3999L17.6 14.0799L17.105 15.3999L17.2425 13.9699L16.225 14.9599L16.94 13.7499L15.62 14.1899L16.775 13.3924L15.4 13.1999L16.775 13.0074L15.62 12.2099L16.94 12.6499L16.225 11.4399L17.2425 12.4299L17.105 10.9999L17.6 12.3199Z" fill="#FFE62E"/>
</g>
<defs>
<clipPath id="clip0_2056_72">
<rect width="44" height="44" fill="white"/>
</clipPath>
</defs>
</svg>
