<svg width="44" height="44" viewBox="0 0 44 44" fill="none" xmlns="http://www.w3.org/2000/svg">
<g clip-path="url(#clip0_2056_108)">
<path d="M0 22C0 34.1503 9.84971 44 22 44C34.1503 44 44 34.1503 44 22C44 9.84971 34.1503 0 22 0C9.84971 0 0 9.84971 0 22Z" fill="#200573"/>
<path d="M17.5921 21.802L9.14726 16.1228V21.8035H1.84326V16.1228L0.579834 16.973C1.79627 11.8039 4.83943 7.24835 9.14884 4.1454V5.83783L17.0987 0.549971C17.6848 0.416399 18.2804 0.307971 18.8854 0.219971H21.6731V2.92126L14.982 7.34954H21.6731V14.5655H14.982L21.6731 19.107V21.8035H17.5921V21.802Z" fill="#F0F0F0"/>
<path d="M10.9011 14.564H13.4468L21.6497 20.0027V21.7815L10.9011 14.564ZM1.28867 14.564H1.84339V15.1124L0.9021 15.7473C1.02153 15.3497 1.15039 14.9553 1.28867 14.564ZM9.14739 7.36997V6.82154L19.0615 0.219971H21.6717L10.9231 7.36997H9.14739Z" fill="#E60012"/>
<path d="M3.3095 21.802V13.1183H1.86536C3.1949 10.1127 5.17925 7.44222 7.67336 5.302V8.81729H21.6701V13.1183H7.69693V21.802H3.3095ZM28.9646 32.9874L29.5571 34.7836H31.4444L29.9075 35.893L30.4999 37.708L28.9646 36.5781L27.4278 37.708L28.0202 35.893L26.4834 34.7836H28.3722L28.9646 32.9874Z" fill="#E60012"/>
<path d="M30.8897 38.2249L28.9647 36.8373L27.0397 38.2249L27.7799 35.9668L25.8549 34.5792H28.2246L28.9647 32.321L29.7049 34.5792H32.0746L30.1496 35.9668L30.8881 38.2249H30.8897ZM28.9647 36.3376L30.1119 37.1705L29.6687 35.819L30.8159 34.9862H29.3906L28.9459 33.6348L28.5011 34.9862H27.1136L28.2607 35.819L27.8176 37.1705L28.9647 36.3376Z" fill="white"/>
<path d="M38.5377 15.6797L39.0374 17.2338H40.6654L39.3517 18.1767L39.8514 19.7324L38.5377 18.7707L37.2224 19.7324L37.7237 18.1767L36.4084 17.2338H38.0364L38.5377 15.6797Z" fill="#E60012"/>
<path d="M40.2412 20.2699L38.5394 19.0285L36.8359 20.2699L37.4834 18.271L35.7815 17.0296H37.8935L38.5409 15.0308L39.1884 17.0296H41.3004L39.5969 18.271L40.2444 20.2683H40.2412V20.2699ZM37.0402 17.4382L37.9642 18.1045L37.6122 19.1966L38.5362 18.5303L39.4602 19.1966L39.1082 18.1045L40.0322 17.4382H38.8851L38.5315 16.346L38.1795 17.4382H37.0402Z" fill="white"/>
<path d="M25.8547 18.3167L26.3545 19.8535H27.9825L26.6688 20.8152L27.1685 22.3521L25.8547 21.4092L24.5395 22.3521L25.0407 20.8152L23.7255 19.8535H25.3535L25.8547 18.3167Z" fill="#E60012"/>
<path d="M24.1528 22.888L24.8002 20.8891L23.0968 19.6492H25.2088L25.8562 17.6504L26.5037 19.6492H28.6157L26.9138 20.8907L27.5612 22.888L25.8578 21.6481L24.1559 22.8895H24.1512L24.1528 22.888ZM25.8547 21.1484L26.7787 21.8147L26.4267 20.7225L27.3507 20.0562H26.2035L25.8515 18.9641L25.4995 20.0562H24.3524L25.2764 20.7225L24.9244 21.8147L25.8547 21.1484Z" fill="white"/>
<path d="M31.1347 8.96021L31.7272 10.7563H33.6129L32.0776 11.8846L32.67 13.6808L31.1332 12.5698L29.5963 13.6808L30.1887 11.8846L28.6534 10.7563H30.5407L31.1347 8.96021Z" fill="#E60012"/>
<path d="M33.0598 14.2168L31.1348 12.8088L29.2098 14.1979L29.9499 11.9398L28.0249 10.5506H30.3946L31.1348 8.29248L31.8749 10.5506H34.2446L32.3196 11.9398L33.0582 14.2183L33.0598 14.2168ZM31.1348 12.3106L32.2819 13.1435L31.8388 11.7921L32.9859 10.9592H31.5606L31.1159 9.60777L30.6712 10.9592H29.2836L30.4308 11.7921L29.986 13.1435L31.1332 12.3106H31.1348Z" fill="white"/>
</g>
<defs>
<clipPath id="clip0_2056_108">
<rect width="44" height="44" fill="white"/>
</clipPath>
</defs>
</svg>
