<svg width="44" height="44" viewBox="0 0 44 44" fill="none" xmlns="http://www.w3.org/2000/svg">
<g clip-path="url(#clip0_2059_228)">
<path d="M-2.99161e-05 21.9996C-0.0187553 24.9004 0.536429 27.7763 1.63357 30.4617C2.7307 33.1471 4.34813 35.5891 6.39274 37.6469C8.43735 39.7048 10.8688 41.3379 13.5471 42.4524C16.2253 43.5668 19.0976 44.1406 21.9985 44.1406C24.8994 44.1406 27.7717 43.5668 30.4499 42.4524C33.1282 41.3379 35.5596 39.7048 37.6043 37.6469C39.6489 35.5891 41.2663 33.1471 42.3634 30.4617C43.4606 27.7763 44.0158 24.9004 43.997 21.9996C43.9595 16.1898 41.6253 10.6307 37.5038 6.53581C33.3824 2.44087 27.8084 0.142578 21.9985 0.142578C16.1886 0.142578 10.6146 2.44087 6.49315 6.53581C2.3717 10.6307 0.0374732 16.1898 -2.99161e-05 21.9996Z" fill="white"/>
<path d="M21.999 21.9995L6.15149 37.2567C9.25407 40.4861 13.27 42.6895 17.6606 43.5714C24.484 44.9362 31.8573 43.0415 37.2553 37.847C41.7376 33.5297 43.9778 27.7642 43.9778 21.9995H21.999Z" fill="#CC303C"/>
<path d="M21.999 21.9994L6.15149 6.74405C9.25391 3.51425 13.2699 1.31052 17.6606 0.428503C24.484 -0.936351 31.8573 0.958311 37.2553 6.15282C41.7376 10.4701 43.9778 16.2357 43.9778 21.9994H21.999Z" fill="#0053A3"/>
<path d="M5.74447 30.9219L4.94975 30.5754L4.39978 31.2271L4.48136 30.393L3.68665 30.0667L4.52169 29.8623L4.5831 29.0281L5.01117 29.7614L5.8453 29.5369L5.27607 30.1877L5.74355 30.921L5.74447 30.9219ZM12.181 22.4889L12.5275 22.1021L12.038 21.7153C11.6924 21.7758 11.3047 21.796 10.9591 21.8574C10.6127 21.9188 10.6328 21.7556 10.9591 21.6942C11.2845 21.6337 11.5898 21.5934 11.9161 21.5311C11.6915 21.3276 11.6714 21.2872 11.4065 21.3688C11.1223 21.4504 10.6942 21.7144 10.5916 21.389C10.5109 21.1653 10.3478 21.1039 10.5714 20.982C10.7346 20.8995 10.8977 20.7776 11.0609 20.7162C11.345 20.5539 11.345 20.5539 11.4065 20.2074L10.6732 20.696L10.3478 20.9206C10.1846 21.0214 10.3478 20.7171 10.3679 20.696C10.653 20.4522 10.9591 20.2285 11.2644 19.9838C11.488 19.8206 11.4065 19.5961 11.4065 19.3513L10.8162 19.3724C10.5925 19.6373 10.3478 19.9425 10.1232 20.2074C9.89953 20.4925 9.79778 20.3706 10.0224 20.0654C10.2258 19.7995 10.4083 19.5557 10.5925 19.2707C10.3267 19.2908 10.2662 19.2707 10.1232 19.5154C10.0209 19.6737 9.9261 19.8368 9.83903 20.004C9.69604 20.2276 9.77761 20.2276 9.55304 20.0855C9.32939 19.9838 9.1259 20.0654 9.16623 19.8005C9.22338 19.6197 9.27111 19.4362 9.30922 19.2505C9.38988 18.9242 9.38988 18.9242 9.16623 18.618C9.10481 18.904 9.06448 19.1891 9.00307 19.4943L8.92149 19.9022C8.90132 20.1057 8.77941 19.7592 8.77941 19.6978C8.83991 19.311 8.86099 18.9242 8.92149 18.5575C8.94257 18.2926 8.75925 18.211 8.57592 18.0075L8.18819 18.5172C8.2496 18.8628 8.27068 19.2505 8.33118 19.5961C8.3926 19.9425 8.22944 19.9224 8.16802 19.5961C8.10661 19.2707 8.06628 18.9645 8.00486 18.6391C7.84262 18.8628 7.76104 18.8838 7.84262 19.1487C7.90312 19.3522 7.94345 19.4943 7.9847 19.6987C8.04611 19.9425 8.08644 19.9022 7.84262 19.9829C7.61805 20.0654 7.5163 20.2487 7.37331 20.0443C7.29265 19.8811 7.16982 19.7189 7.10932 19.5557C6.94616 19.2707 6.90491 19.2707 6.59968 19.2294C6.76284 19.4741 6.926 19.6978 7.10932 19.9425L7.33298 20.2689C7.43472 20.432 7.12949 20.2689 7.10932 20.2487L6.37602 19.3522C6.21286 19.1277 5.98829 19.2092 5.74355 19.2505L5.82605 19.8811C6.1102 20.1057 6.39619 20.3092 6.70142 20.5338C7.00666 20.7574 6.86458 20.8592 6.59968 20.6346C6.33477 20.432 6.09003 20.289 5.80496 20.0846C5.82605 20.3504 5.80496 20.4109 6.0497 20.5539C6.31461 20.7171 6.82333 20.7987 6.64001 21.1241C6.53918 21.3477 6.61984 21.5311 6.37602 21.4706C6.1953 21.4134 6.01173 21.3657 5.82605 21.3276C5.41815 21.2267 5.41815 21.2267 5.13308 21.4293C5.41815 21.4907 5.70322 21.5311 6.00937 21.5925L6.39619 21.6539C6.61984 21.674 6.25319 21.796 6.1927 21.796C5.80496 21.7758 5.41815 21.7153 5.0515 21.6951C4.78659 21.674 4.70502 21.8574 4.50152 22.0407L4.99009 22.4275C5.33657 22.367 5.72339 22.3459 6.06987 22.2854C6.41635 22.224 6.39619 22.3863 6.06987 22.4477C5.74447 22.5091 5.43831 22.5503 5.11291 22.6108C5.33657 22.774 5.35674 22.8556 5.62164 22.774C5.90671 22.6924 6.33477 22.4275 6.43744 22.7538C6.5181 22.9775 6.68126 23.038 6.49793 23.181C6.33477 23.2635 6.17161 23.3854 6.00937 23.4468C5.72338 23.609 5.72338 23.609 5.66289 23.9555L6.39619 23.467L6.72159 23.2424C6.88475 23.1406 6.72159 23.4459 6.70142 23.467C6.41635 23.7108 6.11112 23.9555 5.80496 24.1792C5.58131 24.3423 5.66289 24.5669 5.70414 24.8117L6.33477 24.7292C6.55935 24.445 6.80317 24.159 7.02774 23.8538C7.2514 23.5687 7.35314 23.6906 7.12857 23.9959C6.92693 24.2476 6.74315 24.5132 6.5786 24.7906C6.84442 24.7704 6.90491 24.7906 7.04791 24.5458C7.14965 24.3836 7.2514 24.2204 7.31281 24.0573C7.45489 23.8336 7.37331 23.8336 7.59697 23.9555C7.82154 24.0573 8.02595 23.9757 7.94437 24.2204C7.88718 24.4011 7.83946 24.5847 7.80137 24.7704C7.71979 25.0958 7.71979 25.1169 7.94437 25.402C8.00486 25.1169 8.0452 24.8318 8.10661 24.5257L8.16802 24.1388C8.18819 23.9152 8.31102 24.2809 8.31102 24.3423C8.28993 24.7292 8.22852 25.1169 8.20927 25.4835C8.18819 25.7484 8.37151 25.8291 8.59609 25.9923L8.9829 25.5037C8.92149 25.1572 8.88116 24.7704 8.83991 24.4239C8.77941 24.0774 8.94257 24.0985 9.00307 24.4239C9.06448 24.7502 9.10481 25.0555 9.20656 25.3809C9.36972 25.1572 9.43113 25.1371 9.36972 24.8721C9.30922 24.6687 9.26889 24.5257 9.20656 24.3222C9.14606 24.0774 9.10573 24.1187 9.34955 24.0371C9.57321 23.9546 9.67587 23.7713 9.77762 23.9757C9.87844 24.1388 9.98111 24.302 10.0618 24.4652C10.2662 24.7493 10.2662 24.7493 10.6117 24.7906C10.4489 24.5481 10.2793 24.3103 10.103 24.0774L9.87936 23.752C9.77762 23.5889 10.0829 23.752 10.103 23.7722L10.8363 24.6687C10.9995 24.8923 11.2231 24.7695 11.4688 24.7695L11.3661 24.2195C11.0811 23.9959 10.796 23.7924 10.4898 23.5687C10.2057 23.3441 10.3276 23.2836 10.5916 23.467C10.8574 23.6705 11.1416 23.8125 11.3863 24.0169C11.3661 23.7511 11.3863 23.6906 11.1425 23.5476C10.8766 23.3854 10.3679 23.3038 10.5512 22.9775C10.653 22.774 10.5714 22.5705 10.8162 22.6521C11.0196 22.7126 11.1626 22.7529 11.3661 22.7942C11.6924 22.8767 11.6915 22.8767 11.9977 22.6521C11.7529 22.5907 11.5082 22.5696 11.2644 22.5091L10.8565 22.4275C10.796 22.4275 10.5925 22.224 10.7758 22.2653L12.181 22.4889ZM15.8063 22.6924L16.2957 22.0004L15.8063 21.3074L16.601 21.5723L17.0895 20.8592V21.6942L17.9053 21.96L17.1106 22.2039V23.0792L16.601 22.367L15.8063 22.6924ZM5.74447 13.0779L4.94975 13.4244L4.39978 12.7727L4.48136 13.6078L3.70681 13.9744L4.54277 14.1376L4.60327 14.9717L5.03133 14.2384L5.86638 14.4428L5.29624 13.8112L5.74447 13.0779Z" fill="#FAD400"/>
</g>
<defs>
<clipPath id="clip0_2059_228">
<rect width="44" height="44" fill="white"/>
</clipPath>
</defs>
</svg>
