<svg width="44" height="44" viewBox="0 0 44 44" fill="none" xmlns="http://www.w3.org/2000/svg">
<g clip-path="url(#clip0_2059_199)">
<path d="M44 22C44 34.133 34.1302 44 22.0014 44C9.8725 44 0 34.133 0 22C0 9.8725 9.8725 0 22.0014 0C34.1302 0 44 9.8725 44 22Z" fill="#006B35"/>
<path d="M33.1279 32.6659C33.0138 32.78 32.3565 32.7401 32.3565 32.7401C32.3565 32.7401 32.2383 32.5146 32.0554 32.5146C31.867 32.5146 31.7295 32.67 31.691 32.7167C31.6457 32.7607 30.6942 32.7264 30.6942 32.7264C30.6942 32.7264 30.536 32.5284 30.6735 32.2864H33.0633C33.0633 32.2864 33.242 32.5517 33.1279 32.6659ZM33.8429 31.3486C33.7865 31.319 33.7257 31.2986 33.6628 31.2881C33.4634 31.2441 33.2558 31.2744 33.0578 31.2744C32.8405 31.2689 32.6178 31.2689 32.4019 31.2647C31.9578 31.2579 31.5137 31.2551 31.0682 31.2482C31.0448 31.2482 30.6144 31.2304 30.6144 31.2441C30.6199 31.2207 30.6199 31.1891 30.6199 31.1644C30.6199 31.0722 30.7285 31.1066 30.7822 30.9774C30.8468 30.844 30.6983 30.6116 30.5457 30.6212C30.5264 30.6212 30.5058 30.6281 30.4852 30.6171C30.4618 30.602 30.4563 30.5676 30.4563 30.5374C30.4522 30.3545 30.2198 30.2899 30.085 30.3889C29.9572 30.4892 29.9434 30.6474 29.9668 30.7959C29.9805 30.8701 30.008 30.9471 30.0369 31.0186C30.041 31.0324 30.1112 31.2386 30.0947 31.2345L10.1283 30.998C10.9038 32.3702 12.6019 32.2424 12.6019 32.2424H30.0163C30.03 32.45 30.0493 32.6631 30.0933 32.8694C30.1208 32.9876 30.1483 33.1114 30.2074 33.22C30.2817 33.3671 30.4068 33.4221 30.5622 33.3919C30.6625 33.374 30.7162 33.2887 30.7464 33.1994H33.1967C33.2407 33.1994 33.2888 33.2681 33.3149 33.2997C33.352 33.3437 33.3878 33.3822 33.4318 33.4111C33.5803 33.5115 33.7192 33.4854 33.8814 33.4854C34.1138 33.4854 34.3792 33.2791 34.3792 32.3496C34.3792 31.9412 34.2169 31.5411 33.8415 31.3486M6.14217 19.305C6.04455 19.2734 5.72142 19.8729 5.58942 20.5191C5.4863 21.0182 5.54955 21.2781 5.5743 21.3689C5.61005 21.4816 5.76817 22.0344 6.1188 22.0632C6.41442 22.0907 6.65092 21.7291 6.7348 21.4816C6.8338 21.1942 6.78292 20.8629 6.6853 20.8395C6.60692 20.8202 6.5478 20.988 6.35117 21.0086C6.32092 21.0086 6.22055 21.0224 6.15867 20.9674C6.03905 20.8711 6.09817 20.6181 6.13255 20.4531C6.23017 19.9512 6.23705 19.3339 6.14217 19.3036M8.6213 16.7159C8.64192 16.588 8.3463 16.4161 8.08505 16.3694C7.8018 16.3212 7.57355 16.4161 7.39755 16.4904C6.76505 16.7557 6.4543 17.2549 6.12155 17.7884C6.03355 17.9327 6.0198 17.9699 6.03905 17.996C6.1628 18.1981 7.73167 17.1297 8.47967 16.8341C8.5168 16.8204 8.61167 16.7791 8.6213 16.7159ZM6.79942 11.5404C6.67567 11.3974 6.4488 11.1416 6.49692 10.9546C6.52442 10.8501 6.62617 10.7759 6.71692 10.7525C6.93692 10.7016 7.14042 10.9381 7.17067 10.978C7.49517 11.3685 7.26417 11.9556 7.23942 12.0161C7.1803 12.1632 7.0703 12.3406 7.00567 12.3255C6.93692 12.3062 6.92867 12.0532 6.92317 11.99C6.91767 11.847 6.93692 11.7727 6.8943 11.6696C6.87137 11.6208 6.83914 11.5769 6.79942 11.5404Z" fill="white"/>
<path d="M5.78737 12.5289C5.69937 12.9497 5.797 13.5767 5.797 13.5767C5.91525 14.2174 5.7915 14.1927 5.92487 14.6671C6.02387 15.0177 6.12287 15.3628 6.40337 15.4563C6.54396 15.5012 6.69638 15.4909 6.82962 15.4274C7.1555 15.2583 7.20912 14.7894 7.23937 14.5571C7.28887 14.1721 7.1885 14.0593 7.29437 13.7348C7.35762 13.5217 7.4855 13.2797 7.55975 13.2948C7.667 13.3182 7.546 13.9713 7.667 15.0122C7.722 15.4563 7.78112 15.6557 7.94337 15.7574C8.14687 15.8908 8.39437 15.8028 8.58687 15.9994C8.67762 16.0902 8.71062 16.1919 8.73537 16.2923C8.877 16.8451 8.80962 17.4281 8.81925 18.0688C8.833 18.8594 8.94162 18.9144 8.97737 18.9241C9.11487 18.9681 9.328 18.6958 9.43112 18.5294C9.5095 18.3947 9.64425 18.1183 9.62775 17.3002C9.61812 16.7914 9.614 16.4944 9.54525 16.0696C9.48612 15.7093 9.40637 15.4123 9.57 15.2583C9.669 15.1662 9.82025 15.1662 9.86012 15.1662C10.0829 15.1662 10.1516 15.3174 10.373 15.3972C10.6892 15.5113 11.0096 15.3697 11.1155 15.3229C11.334 15.2292 11.517 15.0684 11.638 14.8637C11.7879 14.6121 11.8305 14.3618 11.7507 13.9369C11.6572 13.4378 11.6036 13.2632 11.5046 13.0308C11.4909 12.9978 11.4551 12.8383 11.495 12.7847C11.5142 12.7503 11.5789 12.7751 11.6284 12.7366C11.6627 12.7104 11.6834 12.6623 11.6737 12.5482C11.6435 12.1879 11.44 11.9803 11.44 11.9803C11.3231 11.8566 11.0275 11.6256 10.7992 11.7301C10.582 11.8263 10.5572 12.1687 10.5476 12.3062C10.5119 12.7943 10.7635 13.2494 10.8721 13.4419C11.0399 13.7348 11.209 13.9012 11.1581 14.1336C11.154 14.1624 11.121 14.3068 11.0096 14.3618C10.8721 14.4251 10.6892 14.3013 10.5572 14.2023C10.4294 14.1129 10.2451 13.9851 10.1516 13.7678C10.0279 13.4763 10.2066 13.3732 10.1777 12.8452C10.1502 12.3268 9.9605 12.1233 9.911 12.0752C9.86012 12.0202 9.746 11.9061 9.60437 11.9212C9.20012 11.9514 9.24412 12.4643 9.27437 12.7448C9.28812 12.9126 9.31837 13.0776 9.36237 13.2398C9.38162 13.3086 9.40637 13.3773 9.43112 13.4474C9.5205 13.6881 9.63462 13.9163 9.53425 14.0483C9.53012 14.0593 9.47925 14.1129 9.4325 14.1088C9.34175 14.0992 9.29775 13.9163 9.25787 13.7376C9.19863 13.4698 9.16229 13.1975 9.14925 12.9236C9.14925 12.9236 9.12587 12.4836 9.03512 12.0161C8.95675 11.5953 8.82887 10.9243 8.55387 10.8886C8.40812 10.8707 8.25137 11.0329 8.18675 11.1801C8.074 11.4234 8.206 11.6448 8.31462 12.0642C8.415 12.4492 8.33112 12.3708 8.4425 12.9937C8.58687 13.8022 8.75462 14.1129 8.5635 14.3962C8.547 14.4154 8.44937 14.5571 8.3545 14.5378C8.217 14.5131 8.17575 14.1336 8.1565 13.9644C8.129 13.6743 8.162 13.5464 8.18675 13.0033C8.20187 12.5784 8.19225 12.4451 8.09875 12.3158C8.08775 12.2966 7.92962 12.0834 7.7275 12.0986C7.546 12.1137 7.43187 12.3199 7.293 12.5881C7.11201 12.8935 6.99724 13.2336 6.95612 13.5863C6.91212 13.9947 6.99737 14.2326 6.83512 14.3508C6.79569 14.3782 6.7502 14.3957 6.70254 14.4017C6.65489 14.4077 6.60649 14.402 6.5615 14.3852C6.369 14.3109 6.32637 14.0112 6.26175 13.5767C6.20675 13.1958 6.2315 13.0569 6.12425 12.8053C6.12425 12.8053 6.05962 12.5289 5.92487 12.4781C5.91112 12.4739 5.87537 12.4588 5.83687 12.4739C5.83687 12.4739 5.797 12.4849 5.78737 12.5289Z" fill="white"/>
<path d="M9.55904 10.9931C9.46279 11.1306 9.52604 11.319 9.54941 11.3878C9.60095 11.5407 9.70855 11.6685 9.85054 11.7453C9.93579 11.7838 10.0279 11.8048 10.1214 11.8072C10.2149 11.8095 10.3079 11.7932 10.395 11.759C10.4968 11.7274 10.67 11.6806 10.7759 11.5115C10.8584 11.3836 10.8584 11.2599 10.8584 11.1746C10.8584 11.1018 10.8584 10.8996 10.769 10.8653C10.7058 10.8446 10.6068 10.9051 10.5614 10.9794C10.5133 11.0536 10.5339 11.121 10.4885 11.1416C10.4487 11.1554 10.395 11.121 10.3648 11.0866C10.2905 11.0041 10.3414 10.9079 10.2809 10.8653C10.23 10.824 10.1228 10.8446 10.0719 10.9051C9.99766 10.989 10.054 11.121 10.01 11.1375C9.98391 11.1458 9.94129 11.0866 9.90966 11.0468C9.83541 10.9533 9.84641 10.9093 9.80654 10.8886C9.74191 10.8543 9.61954 10.9161 9.55904 10.9931ZM11.1348 17.1311C11.0564 17.2246 10.8625 17.215 10.7608 17.1078C10.6907 17.0376 10.6315 16.8988 10.7044 16.7915C10.7787 16.687 10.9327 16.676 11.0303 16.731C11.1307 16.7901 11.154 16.9098 11.1595 16.9483C11.165 16.9868 11.1788 17.0775 11.1348 17.1311ZM15.9349 15.6846C15.895 15.5953 15.7204 15.5746 15.5925 15.6049C15.5554 15.6145 15.4413 15.6393 15.3767 15.7328C15.312 15.8276 15.356 15.9019 15.2832 16.0256C15.2625 16.0641 15.213 16.1439 15.1594 16.137C15.1003 16.1343 15.1099 15.9995 15.0164 15.8978C14.9566 15.8385 14.8807 15.7979 14.7982 15.7811C14.7156 15.7642 14.63 15.7718 14.5517 15.8029C14.4733 15.8441 14.4829 15.8868 14.2712 16.2071C14.1708 16.3501 14.1405 16.3859 14.0869 16.4161C13.9852 16.4711 13.816 16.4876 13.7267 16.4065C13.6235 16.3061 13.7418 16.1673 13.6428 15.9858C13.5685 15.8579 13.4255 15.7589 13.288 15.763C13.1643 15.763 13.1299 15.851 13.0653 15.8373C12.914 15.8029 12.9608 15.2941 12.8728 14.5874C12.793 13.9604 12.7545 13.6496 12.6803 13.4186C12.617 13.1986 12.5263 12.9828 12.6308 12.8686C12.7545 12.7463 13.0117 12.9099 13.1093 12.7944C13.2042 12.6871 13.0158 12.4809 12.8288 11.9611C12.6913 11.5761 12.6349 11.2351 12.408 11.0385C12.2939 10.9381 12.2059 10.934 12.1729 10.934C12.128 10.9323 12.0832 10.9398 12.0413 10.9561C11.9995 10.9724 11.9614 10.9972 11.9295 11.0289C11.8415 11.066 11.7178 11.1361 11.6642 11.264C11.6037 11.4235 11.6738 11.5913 11.7082 11.6696C11.8415 11.9955 11.8154 12.3668 11.88 12.7064C11.9433 13.0708 11.8993 12.9236 12.0918 14.1089C12.1468 14.4348 12.1825 14.6781 12.2499 15.1663C12.364 15.9816 12.3847 16.2855 12.2197 16.3859C12.1083 16.4601 11.9447 16.3996 11.9062 16.3859C11.6229 16.2855 11.6477 15.9899 11.407 15.8716C11.165 15.7534 10.8625 15.9074 10.6962 15.9899C10.4277 16.1266 10.2149 16.352 10.0939 16.6279C10.0595 16.7063 9.80104 17.314 10.1627 17.7183C10.2645 17.8315 10.3943 17.916 10.5392 17.963C10.684 18.0101 10.8387 18.0182 10.9877 17.9864C11.2228 17.9204 11.4167 17.7045 11.4854 17.7636C11.5088 17.7815 11.5047 17.8324 11.4992 17.8558C11.4359 18.3315 11.2764 18.5639 11.2764 18.5639C11.0509 18.9035 10.7498 19.0823 10.5215 19.2143C10.043 19.4961 9.75704 19.6653 9.40641 19.5855C9.2356 19.5425 9.07768 19.4589 8.94603 19.3419C8.81439 19.2248 8.7129 19.0778 8.65016 18.9131C8.52641 18.5639 8.69141 18.2765 8.45904 17.8461C8.37516 17.6894 8.32566 17.6811 8.29404 17.6811C8.13729 17.6839 8.03416 18.1981 7.99429 18.4594C7.95029 18.7894 7.89666 19.1758 8.09329 19.6213C8.24001 19.9626 8.49365 20.2471 8.81603 20.4319C9.13841 20.6166 9.51208 20.6916 9.88079 20.6456C10.4445 20.5975 10.8144 20.306 11.0207 20.1438C11.2324 19.9746 11.7412 19.5745 11.9062 18.9131C12.0285 18.4113 11.8965 17.9768 12.1963 17.7375C12.2265 17.7141 12.331 17.6344 12.3943 17.6688C12.5318 17.7334 12.4218 18.2064 12.3805 18.4154C12.2939 18.7756 12.1963 19.2198 11.8594 19.7326C11.6875 19.9953 11.4112 20.4064 10.8832 20.7199C10.4902 20.9506 10.0448 21.077 9.58929 21.087C9.30879 21.0911 8.58141 21.0966 8.19229 20.6126C8.01354 20.3954 7.95029 20.1231 7.93104 20.0448C7.84029 19.6955 7.90629 19.426 7.70829 19.0864C7.62441 18.9338 7.57354 18.9283 7.55979 18.9338C7.39204 18.9434 7.31366 19.7093 7.30404 19.7835C7.26966 20.1685 7.23391 20.5081 7.38104 20.9289C7.44566 21.1104 7.61066 21.5751 8.05479 21.8721C8.43979 22.1279 8.83029 22.1196 9.38304 22.099C9.94848 22.0864 10.505 21.9552 11.0165 21.714C11.5555 21.461 11.9062 21.1448 12.0478 21.0073C12.2843 20.7763 12.6652 20.4105 12.8728 19.8069C13.002 19.4329 13.0048 19.1125 13.0158 18.8939C13.0309 18.2903 12.9072 17.512 13.0309 17.4419C13.0722 17.4213 13.1093 17.4281 13.1093 17.4281C13.1643 17.4309 13.1932 17.4776 13.2275 17.5051C13.2784 17.5464 13.3375 17.556 13.4503 17.5698C13.6235 17.6 13.7624 17.5698 13.816 17.556C13.9247 17.5313 13.992 17.4873 14.0965 17.4281C14.289 17.314 14.2987 17.2659 14.4128 17.2288C14.4939 17.2054 14.5475 17.215 14.7593 17.2453C15.2529 17.3236 15.2625 17.3291 15.3065 17.3236C15.5252 17.2934 15.7108 17.1105 15.7947 16.9483C16.0037 16.5633 15.7314 16.1741 15.9088 15.8276C15.9253 15.8029 15.9597 15.7396 15.9363 15.6846" fill="white"/>
<path d="M14.1571 18.3811C14.3358 18.6231 14.4142 18.597 14.4678 18.7166C14.5751 18.9641 14.3303 19.2198 14.4376 19.3285C14.4926 19.378 14.5916 19.3573 14.6452 19.334C14.8514 19.2432 14.8487 18.8651 14.8418 18.7413C14.8503 18.5084 14.7752 18.2802 14.6301 18.0978C14.5558 18.0098 14.4238 17.8517 14.2616 17.882C14.1516 17.9012 14.0471 18.0057 14.0388 18.1143C14.0333 18.1542 14.0333 18.2188 14.1571 18.3811ZM23.9677 20.7805C23.9842 20.643 23.9979 20.4546 23.9072 20.39C23.8247 20.3322 23.6817 20.4065 23.5579 20.4697C23.4479 20.5247 23.1179 20.6925 23.1523 20.8753C23.1729 20.9688 23.2871 21.0568 23.3957 21.0706C23.4892 21.0816 23.5332 21.0335 23.5744 21.0623C23.6418 21.1105 23.5469 21.2452 23.6074 21.4075C23.6418 21.501 23.7216 21.5862 23.8054 21.6192C23.9374 21.6797 24.0667 21.6055 24.2454 21.5367C24.7968 21.314 25.0539 21.4075 25.1241 21.2246C25.1639 21.1173 25.1103 20.9633 25.0196 20.8987C24.8821 20.8052 24.6483 20.885 24.3046 21.0032C24.1024 21.072 23.9924 21.127 23.9443 21.0816C23.9031 21.0362 23.9539 20.9688 23.9677 20.7805ZM15.2681 13.9701C15.2818 13.8876 15.3079 13.8532 15.2983 13.7831C15.2942 13.7625 15.2777 13.6593 15.2172 13.6346C15.1292 13.5961 14.9779 13.7281 14.8968 13.856C14.8384 13.9491 14.8063 14.0563 14.8039 14.1662C14.8014 14.2761 14.8288 14.3846 14.8831 14.4802C14.9078 14.5132 15.0109 14.6823 15.2241 14.7318C15.308 14.7481 15.3945 14.7454 15.4773 14.724C15.5601 14.7026 15.637 14.663 15.7026 14.6081C15.8002 14.5132 15.8841 14.3647 15.8442 14.318C15.8167 14.2877 15.7617 14.318 15.6036 14.318C15.4496 14.3207 15.3616 14.3207 15.3079 14.2671C15.2337 14.1873 15.2571 14.0347 15.2667 13.9715M20.4628 15.4771C20.4023 15.4358 20.2937 15.3932 20.2291 15.4331C20.1259 15.5018 20.2002 15.7631 20.2057 15.7768C20.2345 15.8771 20.286 15.9693 20.356 16.0466C20.4261 16.1238 20.513 16.1839 20.6099 16.2223C20.6608 16.2416 20.9014 16.3365 21.1228 16.2086C21.2713 16.1233 21.3249 15.9886 21.3566 15.9212C21.4391 15.7328 21.4693 15.4372 21.3511 15.3726C21.2686 15.3286 21.1132 15.3891 21.0486 15.4867C21.0004 15.5555 21.0004 15.638 20.9798 15.638C20.9509 15.638 20.9661 15.4771 20.8671 15.418C20.847 15.4046 20.8238 15.3965 20.7997 15.3946C20.7757 15.3927 20.7515 15.3969 20.7296 15.407C20.6443 15.4523 20.6704 15.605 20.6196 15.6146C20.5797 15.6215 20.5604 15.5403 20.4628 15.4771ZM15.6338 11.689C15.5692 11.7398 15.4344 11.689 15.3671 11.6065C15.3024 11.5267 15.2763 11.3892 15.3464 11.3246C15.4166 11.2696 15.5389 11.3081 15.6036 11.3727C15.6971 11.4635 15.7108 11.634 15.6324 11.689M16.0436 11.315C16.0614 11.1362 15.9294 10.9341 15.7466 10.8406C15.629 10.7866 15.4969 10.7733 15.3709 10.8027C15.245 10.832 15.1324 10.9025 15.0508 11.0028C14.9827 11.0945 14.9425 11.2039 14.9352 11.3178C14.9279 11.4318 14.9537 11.5454 15.0096 11.645C15.0948 11.7673 15.2584 11.8416 15.3024 11.9997C15.3231 12.0795 15.3066 12.1276 15.3024 12.1441C15.2856 12.1866 15.2564 12.223 15.2186 12.2486C14.9999 12.404 14.8679 12.6831 14.3152 13.0076C13.9151 13.2496 13.8752 13.3376 13.5397 13.526C13.4572 13.57 13.3073 13.7281 13.3513 13.812C13.4256 13.9701 13.9838 13.9605 14.3551 13.8078C14.8143 13.6153 14.7098 13.3733 15.3808 12.8385C15.6531 12.6226 15.9941 12.4108 15.9446 12.2018C15.9294 12.1235 15.8593 12.0533 15.8552 11.9062C15.8552 11.8718 15.8593 11.8237 15.8992 11.6862C15.9831 11.4263 16.0339 11.4071 16.0436 11.315ZM16.4231 11.6546C16.2553 11.6848 16.2512 12.4301 16.2952 12.943C16.3584 13.625 16.4286 14.4555 16.9662 14.6768C17.1944 14.7717 17.5286 14.7855 17.7211 14.6163C17.9534 14.4142 17.8214 14.1076 18.0676 13.5026C18.1611 13.2688 18.3137 12.9828 18.3838 13.0021C18.4883 13.0323 18.2257 13.6291 18.4622 14.2561C18.4814 14.307 18.7537 15.0068 19.2872 15.0921C19.7547 15.1608 20.2799 14.7277 20.3542 14.6658C20.5701 14.4885 20.7254 14.2767 20.9276 14.307C21.0252 14.3207 21.0788 14.384 21.1531 14.4541C21.2177 14.5146 21.7306 15.0041 22.1568 14.934C22.4717 14.8831 22.6931 14.5325 22.7137 14.4995C22.8484 14.2822 22.8416 14.0801 22.9653 14.0595C23.0506 14.0443 23.1578 14.1282 23.2018 14.2121C23.2623 14.3207 23.2128 14.4101 23.2719 14.4651C23.3462 14.5283 23.4892 14.4747 23.5222 14.4651C23.7986 14.3606 23.9127 14.0443 23.9622 13.9055C24.0034 13.7831 24.0722 13.581 23.9979 13.515C23.9374 13.471 23.8398 13.5315 23.6074 13.5851C23.4039 13.636 23.3008 13.6593 23.2321 13.6456C23.0946 13.6153 23.0107 13.4971 22.8856 13.2688C22.5652 12.6762 22.3768 12.3311 22.5143 12.0891C22.5308 12.0657 22.6298 11.8966 22.7577 11.9007C22.8223 11.9007 22.8484 11.9447 22.8718 11.9365C22.9461 11.8966 22.8924 11.3383 22.5116 10.9932C22.4167 10.9107 22.1912 10.7017 21.9588 10.7608C21.6467 10.8351 21.5477 11.3342 21.5381 11.59C21.5284 11.8773 21.6618 12.1028 21.8639 12.4796C22.0372 12.7958 22.0908 12.8041 22.1444 13.0021C22.2187 13.2455 22.2654 13.6992 22.0262 13.8408C21.8749 13.9371 21.6522 13.8752 21.5133 13.7831C21.2617 13.6195 21.2136 13.3087 21.1434 12.8398C21.102 12.5059 21.0791 12.1699 21.0747 11.8333C21.0651 11.5267 21.0651 11.3177 20.9812 11.0276C20.9207 10.8296 20.8437 10.5532 20.6883 10.5326C20.5164 10.5133 20.3542 10.8255 20.3184 10.8942C20.2271 11.069 20.1848 11.2652 20.1961 11.4621C20.2098 11.7632 20.3281 11.8223 20.4119 12.184C20.4766 12.4796 20.4628 12.7161 20.4559 12.8206C20.4326 13.1162 20.4023 13.5012 20.1218 13.7377C20.0764 13.779 19.8551 13.966 19.5897 13.9123C19.3106 13.8615 19.1689 13.5892 19.1359 13.515C19.0039 13.2743 19.0603 13.1162 19.0782 12.514C19.1084 11.6202 19.0012 11.4965 18.9269 11.447C18.7647 11.337 18.5213 11.4387 18.4622 11.4621C17.8159 11.7288 17.6564 12.8343 17.6289 13.0268C17.6155 13.1015 17.5999 13.1758 17.5822 13.2496C17.5134 13.5713 17.4639 13.7941 17.3526 13.8175C17.2384 13.8477 17.1051 13.6593 17.0501 13.5851C16.9621 13.4613 16.8521 13.2647 16.7929 12.7876C16.7338 12.3022 16.7929 12.1001 16.6211 11.8333C16.5771 11.7591 16.4973 11.6408 16.4231 11.6546Z" fill="white"/>
<path d="M17.4845 10.5188C17.259 10.5738 17.1201 10.934 17.0995 10.9835C17.0344 11.1321 17.0106 11.2955 17.0307 11.4565C17.0459 11.5665 17.0637 11.7081 17.1779 11.7631C17.3057 11.8264 17.4652 11.7191 17.5381 11.6504C17.6027 11.5871 17.6866 11.4565 17.6481 11.3891C17.6082 11.3245 17.4941 11.3781 17.4309 11.2998C17.3511 11.2159 17.4061 11.0523 17.4171 11.022C17.4652 10.8694 17.5642 10.8556 17.6096 10.6783C17.633 10.5793 17.6192 10.549 17.6027 10.5325C17.5684 10.4995 17.5092 10.5146 17.4845 10.5188ZM19.5484 10.6026C19.5044 10.637 19.3559 10.7539 19.316 11.1416C19.2926 11.3836 19.316 11.3575 19.2967 11.7246C19.2857 11.9309 19.3765 12.0354 19.4205 12.0546C19.4782 12.0849 19.602 11.9364 19.6267 11.9061C19.8495 11.6339 19.8495 11.3176 19.8495 10.9093C19.8495 10.7649 19.8454 10.6535 19.7752 10.6164C19.7106 10.5834 19.5979 10.5683 19.5484 10.6026ZM24.4764 12.1784C24.4667 12.1646 24.4365 12.1179 24.4516 12.0945C24.4874 12.034 24.7087 12.1536 24.7679 12.0945C24.7734 12.0904 24.7775 12.0739 24.7775 12.0643C24.8325 12.232 24.8957 12.3461 24.9054 12.386C24.9466 12.5428 24.9851 12.7298 25.0195 12.9429C24.8407 12.6871 24.662 12.43 24.4764 12.1784ZM28.1201 18.0551C27.7447 17.0871 27.2374 16.4203 27.0751 16.148C26.7153 15.552 26.3477 14.9607 25.9724 14.3743C25.9337 13.8783 25.8847 13.3832 25.8252 12.8893C25.8555 12.771 25.9187 12.7408 25.9187 12.7408C25.9834 12.7174 26.0274 12.7655 26.0672 12.7408C26.1511 12.7009 26.0769 12.4108 26.0769 12.4108C25.9586 11.9653 25.7194 11.748 25.2285 11.066C25.1584 10.978 25.0594 10.8061 24.9494 10.8199C24.8009 10.8336 24.7129 11.1664 24.6881 11.3795C24.6689 11.5816 24.6936 11.7673 24.7335 11.9254C24.6386 11.7398 24.4131 11.4634 24.3691 11.4029C24.3127 11.3424 24.101 11.0921 23.7559 10.8103C23.3791 10.5091 23.2815 10.5243 23.2375 10.5435C23.1385 10.5848 23.1096 10.7058 23.0587 10.9148C23.0147 11.0866 22.9515 11.3589 23.0752 11.6559C23.1141 11.7409 23.164 11.8205 23.2237 11.8924C24.0212 12.8398 24.6757 13.7349 25.2175 14.5571C25.41 16.6623 25.4884 19.3325 25.454 20.0296C25.4444 20.2854 25.4045 20.9041 25.5915 20.9591C25.751 21.0073 25.993 20.6126 26.1112 20.4229C26.4619 19.8509 26.367 19.3421 26.3134 18.8801C26.3134 18.8801 26.2199 17.4914 26.1071 16.0201C26.3079 16.3763 26.4852 16.7104 26.6434 17.0239C27.3006 18.3301 27.9881 19.5814 28.1009 19.6185C28.2989 19.6845 28.3717 18.7055 28.1201 18.0551ZM26.3532 11.2338C26.3367 11.4166 26.5114 11.4675 26.6874 11.8181C26.7231 11.8869 26.818 12.0698 26.8565 12.3159C26.906 12.6225 26.8427 12.8013 26.8964 12.8191C26.9596 12.8453 27.1287 12.6266 27.2167 12.3805C27.2264 12.3503 27.434 11.7673 27.104 11.2585C27.0242 11.1471 26.8565 10.8873 26.6502 10.9148C26.5736 10.9307 26.5038 10.9701 26.4506 11.0275C26.3973 11.0849 26.3633 11.1575 26.3532 11.2351" fill="white"/>
<path d="M26.6434 13.7032C26.5664 13.6345 26.5939 13.5314 26.5458 13.5107C26.4908 13.4874 26.3712 13.5864 26.3134 13.7032C26.2802 13.7877 26.2705 13.8796 26.2853 13.9692C26.3 14.0587 26.3387 14.1426 26.3973 14.212C26.5898 14.4485 26.9267 14.4045 26.9899 14.3949C27.0546 14.3852 27.3254 14.3509 27.4726 14.1185C27.5729 13.9672 27.6211 13.728 27.5138 13.6001C27.4726 13.5561 27.3997 13.5121 27.3543 13.5314C27.2773 13.5616 27.3144 13.7376 27.2512 13.7541C27.2031 13.7679 27.1329 13.6895 27.1027 13.64C27.0381 13.5451 27.0587 13.4819 27.0188 13.4681C26.9638 13.4475 26.8703 13.5259 26.8318 13.6152C26.7988 13.6799 26.8057 13.7252 26.7727 13.7445C26.7314 13.7637 26.6778 13.7335 26.6434 13.7032ZM31.8836 14.465C31.7791 14.4141 31.7928 14.3069 31.7089 14.2477C31.6113 14.179 31.4202 14.2175 31.3143 14.3261C31.1919 14.4499 31.2167 14.6327 31.2208 14.6974C31.2304 14.7936 31.2758 14.9627 31.8341 15.4577C32.2246 15.8084 32.3181 15.8317 32.3827 15.8015C32.4597 15.7685 32.4803 15.6599 32.5009 15.5224C32.5697 15.1154 32.4019 14.9132 32.5298 14.7702C32.6082 14.6767 32.7168 14.7207 32.8213 14.5832C32.8631 14.5255 32.8887 14.4576 32.8956 14.3866C32.9244 14.2216 32.9052 13.8957 32.6618 13.783C32.5202 13.7197 32.3016 13.7294 32.2177 13.8421C32.0898 14.0154 32.3181 14.3371 32.1943 14.4334C32.1393 14.4787 32.0211 14.4787 32.0018 14.4787C31.9606 14.4787 31.9221 14.4787 31.8836 14.465ZM35.3046 21.2341C35.3087 21.1062 35.4228 21.076 35.4228 20.9921C35.4283 20.8739 35.1973 20.7171 34.9691 20.7364C34.8096 20.7501 34.6391 20.8505 34.6446 20.944C34.6473 21.0567 34.9237 21.0622 34.9842 21.2589C35.0038 21.3369 34.9945 21.4195 34.9581 21.4912C34.8604 21.7332 34.6184 21.7429 34.6074 21.8955C34.5992 21.9862 34.6776 22.0935 34.7724 22.1292C34.9237 22.1884 35.0186 22.0165 35.4434 21.8405C35.6552 21.758 35.7789 21.7442 35.8037 21.6452C35.8229 21.5655 35.7693 21.461 35.6896 21.4129C35.5617 21.3386 35.4187 21.4514 35.3389 21.3716C35.2949 21.329 35.3004 21.2589 35.3046 21.2341ZM30.8111 17.9355C30.8111 17.9355 30.6997 16.9881 30.3876 14.7359C30.2982 14.0704 30.1607 13.4076 30.1002 12.7407C30.1607 12.7297 30.2239 12.7366 30.2831 12.7297C30.3518 12.7297 30.5154 12.7462 30.5691 12.6926C30.6433 12.6115 30.4948 12.4396 30.4604 12.3695C30.3807 12.221 30.3023 12.0794 30.2253 11.9309C30.1016 11.7054 29.9723 11.473 29.8486 11.2406C29.8004 11.1457 29.6863 10.7855 29.5474 10.7951C29.3797 10.7992 29.2724 11.4867 29.2367 11.9364C29.1707 12.7944 29.3467 13.4626 29.3756 13.5864C29.6959 14.8459 30.0864 17.1545 30.1841 19.2734C30.2047 19.7684 30.0947 20.4834 30.2693 20.5274C30.4027 20.5631 30.6296 20.1767 30.7478 19.9114C31.0641 19.1964 30.9059 18.513 30.8111 17.9355Z" fill="white"/>
<path d="M28.0665 10.9286C27.7461 11.4373 27.7393 11.9365 27.7393 11.9365C27.7393 12.4205 27.8671 12.514 27.9373 13.2743C27.9579 13.4558 27.9579 13.5768 27.9675 13.6882C28.0761 16.1247 28.2824 17.1257 28.3429 18.0882C28.3731 18.5145 28.5148 18.8032 28.446 19.5856C28.4268 19.8111 28.2645 19.9857 28.0858 20.2016C27.874 20.4642 26.7039 21.314 26.169 21.6041C26.1003 21.6398 25.9531 21.6508 25.9174 21.7347C25.883 21.8268 26.0618 21.996 26.1951 22.0743C26.6104 22.326 27.1728 22.0881 27.3309 22.0248C28.16 21.6742 28.5505 20.8891 28.7031 20.5632C28.9396 20.0737 29.029 19.6145 29.084 19.1002C29.3453 16.6128 28.7224 14.2575 28.7224 14.2575C28.7224 14.2575 28.3319 12.7958 28.5849 12.712C28.6193 12.6982 28.6729 12.7312 28.7361 12.6982C28.8365 12.6473 28.8558 12.4947 28.8599 12.4548C28.8846 12.2321 28.7774 12.0547 28.7128 11.9365C28.3484 11.2902 28.2989 10.8447 28.149 10.8585C28.1105 10.8681 28.0816 10.9093 28.0665 10.9286ZM33.3245 16.6513C33.5033 16.4795 33.517 15.8263 33.3245 15.8813C33.2901 15.891 31.9674 16.7613 31.823 16.9043C31.68 17.0473 31.5824 17.1463 31.5824 17.3086C31.5824 17.4708 31.5384 17.6702 31.5824 17.7101C31.6264 17.7541 33.1526 16.8301 33.3245 16.6513ZM32.8611 17.1505C32.7731 17.2453 32.8405 17.728 32.9051 17.8655C32.9739 18.0057 33.0234 18.751 33.0234 18.8293C33.0234 18.9036 33.1031 19.1896 33.2255 19.0672C33.3451 18.9476 33.5679 18.5282 33.5679 18.3206C33.5679 18.1143 33.3204 17.3485 33.2241 17.1518C33.1911 17.0803 32.9546 17.0625 32.8611 17.1518M36.4155 12.811C36.4293 12.9347 36.4568 13.1313 36.4664 13.3692C36.4801 13.7198 36.4458 13.8862 36.4898 13.8958C36.5544 13.9165 36.7428 13.6195 36.8005 13.2853C36.8651 12.9347 36.7661 12.6583 36.6823 12.4163C36.5984 12.1675 36.531 11.9708 36.3619 11.931C36.3076 11.9199 36.2513 11.9238 36.199 11.9422C36.1467 11.9606 36.1003 11.9928 36.0649 12.0355C35.9618 12.1771 36.0759 12.3957 36.1254 12.4933C36.1943 12.6213 36.294 12.73 36.4155 12.8096" fill="white"/>
<path d="M35.8037 20.2675C36.0264 19.9609 36.1681 19.8921 36.2478 19.5525C36.2726 19.4287 36.2987 18.9049 36.2987 18.2215C36.6287 18.7371 36.9284 19.2252 37.1759 19.6694C37.5018 20.119 37.5458 20.1891 37.5513 20.1974C37.5554 20.1836 37.8318 19.338 37.4784 18.623C37.1814 18.0262 36.4939 17.0926 36.2684 16.7805C36.2272 15.8826 36.1543 14.9765 36.0209 14.4045C35.6992 13.002 35.6607 12.826 35.8779 12.826C36.0938 12.826 35.5768 11.4221 35.3788 11.0674C35.1808 10.7167 34.9306 10.8295 34.8563 10.9024C34.7821 10.978 34.6088 11.0715 34.6679 11.4015C34.907 12.7198 35.0996 14.0461 35.2454 15.378C34.95 14.9775 34.6585 14.5742 34.3709 14.168C34.3322 13.6733 34.2978 13.1783 34.2678 12.683C34.2678 12.6115 34.5002 12.5771 34.5002 12.4836C34.5002 12.3956 34.2293 11.7782 34.0602 11.6105C33.6367 11.1856 33.7151 10.791 33.5652 10.7951C33.4236 10.7951 33.2902 11.077 33.2957 11.1622C33.3301 11.5967 33.3699 12.2072 33.4139 12.8205C33.1678 12.4589 33.0042 12.2127 33.0042 12.1797C33.0042 12.0202 32.9932 12.0202 33.0922 12.0202C33.1953 12.0202 33.2503 11.9707 33.2957 11.9267C33.3397 11.8827 31.8684 10.2726 31.9729 10.7951C31.9729 10.7951 31.6319 11.836 32.0609 12.3709C32.2191 12.5634 32.8048 13.3196 33.5528 14.3234C33.5762 14.5296 33.6064 14.7001 33.6353 14.8211C33.6353 14.8211 34.0011 17.358 33.8182 19.2789C33.7989 19.4521 33.6312 19.8619 33.3782 19.8976C33.1926 19.9251 33.0097 19.7285 32.8749 19.5896C32.5188 19.2046 32.4899 18.9434 32.2521 18.8691C32.0596 18.8141 31.9124 18.909 31.8176 18.9832C31.6553 19.107 31.5041 19.2692 31.2648 19.9265C31.0393 20.5494 31.0132 20.8601 30.8001 21.0485C30.7121 21.1227 30.5608 21.1764 30.3381 21.1365C29.9228 21.0622 29.7853 20.2634 29.7289 20.0241C29.6066 19.4961 29.7248 19.1111 29.7056 19.1111C29.6712 19.107 29.1831 20.405 29.7454 21.3524C30.0411 21.857 30.6282 22.2571 30.9444 22.1141C31.2607 21.9711 31.4298 21.4761 31.6017 20.6071C31.6271 20.4762 31.6951 20.3574 31.7951 20.2691C31.8951 20.1808 32.0214 20.1281 32.1544 20.119C32.5752 20.0887 32.7127 20.8161 33.2599 20.9536C33.7137 21.0664 34.2197 20.7212 34.4603 20.4655C34.7023 20.207 34.8659 19.6446 34.6074 16.9881C34.5619 16.5223 34.5193 16.0561 34.4796 15.5897C34.7821 16.005 35.0887 16.4354 35.3884 16.8699C35.4929 18.0936 35.5507 19.2734 35.5768 20.4105C35.5768 20.4105 35.5878 20.5672 35.8037 20.2675Z" fill="white"/>
<path d="M37.9816 12.5785C38.0957 12.4603 38.5192 12.7573 38.456 12.4603C38.3914 12.1633 37.62 10.736 37.2597 10.7965C37.1264 10.8158 36.9985 11.2338 36.9985 11.418C36.9985 11.594 37.1016 12.5785 37.1965 13.2853C37.2845 13.9962 37.9266 19.5127 37.774 20.0145C37.62 20.5192 37.246 20.8395 36.9971 21.0829C36.7579 21.329 35.6359 21.7773 35.6359 22.0729C35.6359 22.3699 36.2134 22.3397 36.7812 22.1444C37.3477 21.9464 38.1727 21.5215 38.3034 20.6319C38.4299 19.7423 38.5344 17.3484 38.3817 15.8772C38.2236 14.4059 37.8634 12.6927 37.9816 12.5772M20.812 19.6254C20.6937 19.8674 20.8367 20.1039 20.6979 20.1933C20.6099 20.2483 20.4916 20.2015 20.3981 20.1672C20.0915 20.0489 19.7065 19.723 19.6666 19.2404C19.657 19.1703 19.6267 18.7509 19.8454 18.6313C19.987 18.5529 20.097 18.6959 20.438 18.7509C20.9412 18.8362 21.1832 18.6038 21.406 18.7894C21.4747 18.8499 21.5682 18.9682 21.5476 19.0864C21.5036 19.3422 20.9839 19.2844 20.812 19.6254ZM22.7232 16.0367C22.7672 15.9542 22.9254 15.9404 23.034 15.9899C23.1481 16.0449 23.1811 16.1577 23.232 16.3227C23.2554 16.3997 23.2512 16.4244 23.2375 16.4395C23.1976 16.4987 23.0532 16.4698 22.9556 16.4203C22.7975 16.3405 22.6586 16.137 22.7232 16.0353M25.256 17.9658C25.223 17.8723 24.9507 17.9067 24.871 17.9108C24.1065 17.9905 21.9244 17.9025 21.9175 17.8324C21.9175 17.8118 22.1265 17.8077 22.4537 17.7183C22.693 17.6537 23.1976 17.512 23.6225 17.1257C23.8837 16.8947 24.2151 16.5922 24.2399 16.1178C24.2591 15.7438 24.0804 15.2653 23.6459 15.0384C23.32 14.8693 22.8979 14.8638 22.5912 15.0618C22.2585 15.279 22.1664 15.675 22.0756 16.06C21.9684 16.5138 22.0729 16.5784 21.9587 16.7407C21.6851 17.1312 21.065 16.7709 20.3087 17.1257C19.9378 17.3101 19.6301 17.6006 19.4246 17.9603C19.4012 17.7719 19.3696 17.5602 19.3311 17.2934C19.1084 15.8813 18.8719 15.4812 18.6354 15.2199C18.5419 15.1209 18.3095 14.8638 18.1307 14.9243C17.919 14.9985 17.9149 15.488 17.9149 15.6049C17.9107 16.1095 18.0936 16.3612 18.3095 16.973C18.4979 17.4955 18.6092 17.8118 18.6202 18.2229C18.6395 19.0025 18.2751 19.591 18.1404 19.7835C17.8168 20.2689 17.3691 20.6587 16.8437 20.9124C16.4532 21.1008 16.1521 21.1352 15.9142 21.0073C15.7767 20.9289 15.7011 20.7845 15.653 20.581C15.685 20.5619 15.7158 20.5408 15.7451 20.5178C16.082 20.2964 16.4189 20.0695 16.7791 19.6887C17.2177 19.2212 17.6481 18.7619 17.7224 18.0648C17.7705 17.6248 17.7017 16.929 17.4542 16.6568C17.446 16.643 17.3319 16.5138 17.3621 16.4739C17.3965 16.4244 17.5546 16.5344 17.6234 16.4835C17.7017 16.4107 17.5835 16.0985 17.4199 15.8717C17.2879 15.6792 17.1091 15.4262 16.8025 15.3987C16.6265 15.3822 16.3831 15.4427 16.2607 15.6255C16.0586 15.9253 16.324 16.3598 16.379 16.4437C16.5234 16.6664 16.6155 16.6265 16.7791 16.8699C16.9065 17.0703 16.9806 17.2999 16.9943 17.5369C17.0081 17.774 16.9609 18.0106 16.8575 18.2243C16.6444 18.6808 16.2497 19.0727 15.5499 19.5608C15.5292 18.9145 15.6186 18.5488 15.5389 18.5295C15.4454 18.4993 15.1594 19.052 15.0067 19.6584L14.9325 19.9609C14.344 20.3322 14.3495 20.2909 13.7967 20.636C13.3801 20.8987 11.9639 21.791 12.0532 21.9698C12.1522 22.1692 14.0126 21.4033 14.1171 21.3634C14.3976 21.2452 14.6396 21.1352 14.8486 21.0334C14.8761 21.1915 14.9366 21.3387 15.0301 21.4858C15.3409 21.9395 15.9032 22.1623 16.3886 22.1527C16.8534 22.143 17.1531 21.9258 17.6522 21.56C17.9589 21.34 18.5859 20.8753 19.03 20.0063C19.0547 19.9609 19.074 19.91 19.0946 19.8674C19.118 20.0187 19.1689 20.1672 19.2527 20.3212C19.36 20.5247 19.4851 20.6319 19.701 20.8244C20.1822 21.2452 20.6539 21.4679 20.9412 21.5752C21.2437 21.6893 21.7965 21.8914 22.1004 21.7044C22.1874 21.6502 22.2589 21.5744 22.308 21.4844C22.3605 21.3817 22.3727 21.263 22.3424 21.1517C22.2681 20.9179 21.9986 20.9784 21.7649 20.7117C21.7415 20.6828 21.5339 20.4298 21.5971 20.207C21.648 20.0352 21.8501 19.9417 22.1664 19.8468C22.7879 19.6543 23.3117 19.6144 24.0707 19.4865C24.4777 19.4164 24.7239 19.3587 24.8174 19.1607C24.9095 18.9819 24.7775 18.8898 24.8861 18.6313C24.9067 18.5832 25.014 18.3508 25.2065 18.095C25.2367 18.0538 25.2711 18.0043 25.256 17.9658Z" fill="white"/>
</g>
<defs>
<clipPath id="clip0_2059_199">
<rect width="44" height="44" fill="white"/>
</clipPath>
</defs>
</svg>
