<svg width="44" height="44" viewBox="0 0 44 44" fill="none" xmlns="http://www.w3.org/2000/svg">
<g clip-path="url(#clip0_2055_50)">
<path d="M22 44C34.1502 44 44 34.1502 44 22H0C0 34.1502 9.84977 44 22 44Z" fill="#F9F9F9"/>
<path d="M22 0C9.84977 0 0 9.84977 0 22H44C44 9.84977 34.1502 0 22 0Z" fill="#ED4C5C"/>
<path d="M14.1075 11.3575L13.2 10.6425H14.3275L14.6575 9.54253L15.015 10.6425H16.1425L15.235 11.3575L15.565 12.4575L14.6575 11.77L13.75 12.4575L14.1075 11.3575ZM19.965 11.3575L19.0575 10.6425H20.185L20.5424 9.54253L20.8725 10.6425H22L21.0925 11.3575L21.45 12.4575L20.5424 11.77L19.635 12.4575L19.965 11.3575ZM14.8225 15.015L13.9425 14.3275H15.0425L15.4 13.2L15.7575 14.3275H16.8575L15.95 15.015L16.3075 16.1425L15.4 15.455L14.4925 16.1425L14.8225 15.015ZM19.25 15.015L18.3425 14.3275H19.4425L19.8 13.2L20.1575 14.3275H21.2575L20.3774 15.015L20.7075 16.1425L19.8 15.455L18.8925 16.1425L19.25 15.015ZM17.05 9.15753L16.1425 8.44253H17.2425L17.6 7.34253L17.9575 8.44253H19.0575L18.1775 9.15753L18.5075 10.2575L17.6 9.57003L16.6925 10.2575L17.05 9.15753Z" fill="#F9F9F9"/>
<path d="M16.5 19.0299C15.6441 19.0156 14.7993 18.8328 14.0141 18.4919C13.2288 18.1511 12.5184 17.6589 11.9234 17.0435C11.3284 16.428 10.8604 15.7014 10.5463 14.9051C10.2321 14.1087 10.0779 13.2583 10.0925 12.4024C10.0743 11.5442 10.2258 10.6908 10.5383 9.89133C10.8507 9.09183 11.3181 8.36194 11.9135 7.74356C12.5089 7.12519 13.2205 6.63052 14.0076 6.28796C14.7947 5.9454 15.6417 5.7617 16.5 5.7474H17.2425C16.3871 5.32356 15.4471 5.09797 14.4925 5.0874C13.5347 5.08695 12.5867 5.27892 11.7045 5.65192C10.8224 6.02492 10.0242 6.57135 9.35728 7.25876C8.69039 7.94618 8.16839 8.76058 7.82229 9.65361C7.47619 10.5466 7.31303 11.5001 7.3425 12.4574C7.2347 16.4046 10.3473 19.6917 14.2945 19.7999H14.3C15.4575 19.7961 16.5943 19.493 17.6 18.9199C17.238 18.9934 16.8694 19.0303 16.5 19.0299Z" fill="#F9F9F9"/>
<path d="M22 0C34.1502 0 44 9.84977 44 22C44 34.1502 34.1502 44 22 44C9.84977 44 0 34.1502 0 22C0 9.84977 9.84977 0 22 0ZM22 1.375C10.6095 1.375 1.375 10.6095 1.375 22C1.375 33.3905 10.6095 42.625 22 42.625C33.3905 42.625 42.625 33.3905 42.625 22C42.625 10.6095 33.3905 1.375 22 1.375Z" fill="#EAEAEA"/>
</g>
<defs>
<clipPath id="clip0_2055_50">
<rect width="44" height="44" fill="white"/>
</clipPath>
</defs>
</svg>
