<svg width="44" height="44" viewBox="0 0 44 44" fill="none" xmlns="http://www.w3.org/2000/svg">
<g clip-path="url(#clip0_2059_220)">
<path d="M0 22C0 27.8348 2.31785 33.4305 6.44365 37.5564C10.5695 41.6822 16.1652 44 22 44C27.8348 44 33.4305 41.6822 37.5564 37.5564C41.6822 33.4305 44 27.8348 44 22C44 16.1652 41.6822 10.5695 37.5564 6.44365C33.4305 2.31785 27.8348 0 22 0C16.1652 0 10.5695 2.31785 6.44365 6.44365C2.31785 10.5695 0 16.1652 0 22Z" fill="#F0F0F0"/>
<path d="M42.6314 14.3477H1.3686C0.460778 16.7967 -0.00268271 19.3881 1.16808e-05 22C1.16808e-05 24.6913 0.484012 27.269 1.3686 29.6523H42.6314C43.5392 27.2033 44.0027 24.6119 44 22C44 19.3087 43.516 16.731 42.6314 14.3477Z" fill="#0052B4"/>
<path d="M22 0C15.3322 0 9.35737 2.96725 5.32312 7.65233H38.677C34.6427 2.96725 28.6679 0 22 0ZM38.677 36.3477H5.32312C9.35737 41.0328 15.3322 44 22 44C28.6679 44 34.6427 41.0328 38.677 36.3477Z" fill="#D80027"/>
</g>
<defs>
<clipPath id="clip0_2059_220">
<rect width="44" height="44" fill="white"/>
</clipPath>
</defs>
</svg>
