<svg width="44" height="44" viewBox="0 0 44 44" fill="none" xmlns="http://www.w3.org/2000/svg">
<g clip-path="url(#clip0_2054_3)">
<path d="M1.47623 16.9293C2.46696 12.8379 4.65105 9.13313 7.75123 6.2853C10.8514 3.43748 14.7279 1.57504 18.8885 0.934422C23.0491 0.293805 27.3063 0.903901 31.1195 2.68726C34.9328 4.47062 38.1302 7.34681 40.3058 10.9507C42.4813 14.5546 43.537 18.7237 43.3388 22.9287C43.1406 27.1337 41.6973 31.1849 39.1924 34.5682C36.6874 37.9514 33.2336 40.5141 29.2695 41.9308C25.3054 43.3475 21.0097 43.5544 16.9278 42.5252C14.2303 41.8629 11.6901 40.6748 9.45267 39.0288C7.21527 37.3829 5.32473 35.3115 3.88941 32.9335C2.45409 30.5555 1.50223 27.9176 1.08838 25.171C0.674542 22.4244 0.806857 19.6232 1.47774 16.9278" fill="#F7F8F8"/>
<path d="M41.5693 14.0344H25.1861V17.1933H42.6041C42.3396 16.1157 41.9936 15.0597 41.5693 14.0344ZM37.3741 7.47687H25.1861V10.7162H39.8958C39.1613 9.55747 38.3163 8.47263 37.3726 7.47687M6.73344 36.6838H37.2937C38.273 35.6842 39.1615 34.5997 39.9489 33.4429H4.18448C4.95372 34.6127 5.84434 35.6991 6.83965 36.6823M27.0721 1.47618C26.4497 1.31511 25.8204 1.18197 25.1861 1.07715V4.23756H33.4961C31.5237 2.98789 29.3497 2.08953 27.0705 1.58239M43.0016 20.5403H25.1861V23.7781H43.082C43.1745 22.7009 43.1745 21.6176 43.082 20.5403M2.48365 30.1505H41.5162C41.9396 29.1545 42.2771 28.124 42.5252 27.0705V26.9127H1.4231C1.68103 28.0203 2.03606 29.1051 2.48516 30.1505M16.9293 42.5236C18.1507 42.8802 19.4054 43.1199 20.6723 43.2413H23.3275C26.869 43.03 30.2972 41.9147 33.2852 40.002H10.6616C12.5916 41.2227 14.7083 42.1196 16.9278 42.6571" fill="#E72D14"/>
<path d="M23.5658 22.4779L23.1151 22.1592L22.6645 22.4779L22.8223 21.9468L22.3717 21.6282H22.93L23.1151 21.0699L23.3018 21.6282H23.8586L23.4064 21.9468L23.5658 22.4779ZM21.3354 5.43165L21.4962 6.06889L21.0441 5.72296L20.5935 6.06889L20.7513 5.51206L20.3007 5.19344H20.8575L21.0441 4.6351L21.2307 5.19344H21.7875L21.3369 5.43165H21.3354ZM21.3354 10.3172L21.4962 10.8482L21.0441 10.5023L20.5935 10.8482L20.7513 10.3172L20.3007 9.97124H20.8575L21.0441 9.4402L21.2307 9.97124H21.7875L21.3369 10.3172H21.3354ZM21.3354 15.0692L21.522 15.6275L21.0441 15.2816L20.5935 15.6275L20.7786 15.0692L20.3007 14.7505H20.8848L21.0441 14.2195L21.2307 14.7505H21.7344L21.3369 15.0692H21.3354ZM21.3354 20.3795L20.8848 20.0609L20.4342 20.3795L20.5935 19.8485L20.2218 19.3448H20.7786L20.9637 18.8137L21.123 19.3448H21.7087L21.2292 19.6892L21.3354 20.381V20.3795ZM19.1597 7.79399L19.3448 8.32503L18.8942 8.00641L18.4147 8.32503L18.6013 7.79399L18.1507 7.47537H18.7076L18.8942 6.91854L19.052 7.47689H19.6376L19.1582 7.79551L19.1597 7.79399ZM19.1597 12.5202L19.3448 13.0512L18.8942 12.7326L18.4147 13.0512L18.6013 12.5202L18.1507 12.1758H18.7076L18.8942 11.6448L19.052 12.1758H19.6376L19.1582 12.5202H19.1597ZM19.1597 17.3526L19.3448 17.8836L18.8942 17.5392L18.4147 17.8836L18.6013 17.3526L18.1507 17.0082H18.7076L18.8942 16.4772L19.052 17.0082H19.6376L19.1582 17.3526H19.1597ZM19.3448 22.4779L18.8942 22.1592L18.4147 22.4779L18.6013 21.9468L18.1507 21.6282H18.7076L18.8942 21.0699L19.052 21.6282H19.6376L19.1582 21.9999L19.3448 22.4779ZM17.0871 5.43165L17.2738 6.06889L16.8231 5.72296L16.3452 6.06889L16.5303 5.51206L16.0797 5.19344H16.6896L16.8762 4.6351L17.034 5.19344H17.6197L17.0887 5.43165H17.0871ZM17.0871 10.3172L17.2738 10.8482L16.8231 10.5023L16.3452 10.8482L16.5303 10.3172L16.0797 9.97124H16.6896L16.8762 9.4402L17.034 9.97124H17.6197L17.0887 10.3172H17.0871ZM17.0871 15.0692L17.2464 15.6275L16.6896 15.2816L16.239 15.6275L16.3968 15.0692L15.9462 14.7505H16.6896V14.2195L16.8762 14.7505H17.4331L17.0871 15.0692ZM17.0871 20.3795L16.6896 20.0093L16.2117 20.3279L16.3968 19.7969L15.9993 19.3463H16.6896V18.9214L16.8489 19.4525H17.4058L16.9551 19.7969L17.0871 20.3825V20.3795ZM14.831 3.12392L15.0176 3.68075L14.6459 3.41523L14.1938 3.76117L14.3789 3.20282L14.0344 2.7522H14.5913L14.7506 2.22117L14.9372 2.7522H15.494L14.831 3.12392ZM14.831 7.84861L15.0176 8.37965L14.5382 8.06103L14.0876 8.37965L14.2742 7.84861L14.0344 7.47841H14.5913L14.7506 6.92006L14.9372 7.47841H15.494L14.831 7.84861ZM14.831 12.5748L15.0176 13.1059L14.5382 12.7872L14.0876 13.1059L14.2742 12.5748L14.0344 12.1773H14.5913L14.7506 11.6463L14.9372 12.1773H15.494L14.831 12.5748ZM14.831 17.4072L15.0176 17.9383L14.5382 17.5939L14.0876 17.9383L14.2742 17.4072L14.0344 17.0097H14.5913L14.7506 16.4787L14.9372 17.0097H15.494L14.831 17.4072ZM15.0176 22.5325L14.5382 22.2139L14.0876 22.5325L14.2742 22.0014L14.0344 21.6297H14.5913L14.7506 21.0714L14.9372 21.6297H15.494L14.9372 22.0014L15.0176 22.5325ZM12.8662 5.27234L13.0513 5.80337L12.5733 5.48475L12.1227 5.80337L12.3093 5.27234L11.8299 4.92641H12.414L12.5733 4.39537L12.76 4.92641H13.3168L12.8662 5.27234ZM12.8662 10.1321L13.0513 10.6631L12.5733 10.3445L12.1227 10.6631L12.3093 10.1321L11.8299 9.81344H12.414L12.5733 9.28241L12.76 9.81344H13.3168L12.8662 10.1321ZM12.8662 14.9114L13.0513 15.4424L12.6007 15.1238L12.1227 15.4424L12.3093 14.9114L11.8041 14.5654H12.3624L12.5476 14.0344L12.7069 14.5654H13.291L12.8662 14.9114ZM12.8662 20.2217L12.414 19.8758L11.9634 20.2217L12.15 19.6907L11.751 19.3448H12.3351L12.4944 18.8137L12.6811 19.3448H13.2379L12.7873 19.6892L12.8662 20.2202V20.2217ZM10.7147 7.79551L10.8756 8.32655L10.4234 8.00792L9.97127 8.32655L10.1579 7.79551L9.67996 7.47689H10.2641L10.4234 6.91854L10.6085 7.47689H11.1669L10.7147 7.79551ZM10.7147 12.5202L10.8756 13.0512L10.4234 12.7326L9.97127 13.0512L10.1579 12.5202L9.67996 12.1758H10.2641L10.4234 11.6448L10.6085 12.1758H11.1669L10.7147 12.5202ZM10.7147 17.3526L10.8756 17.8836L10.4234 17.5392L9.97127 17.8836L10.1579 17.3526L9.67996 17.0082H10.2641L10.4234 16.4772L10.6085 17.0082H11.1669L10.7147 17.3526ZM10.8756 22.4779L10.4234 22.1592L9.97127 22.4779L10.1579 21.9468L9.67996 21.6282H10.2641L10.4234 21.0699L10.6085 21.6282H11.1669L10.7147 21.9999L10.8756 22.4779ZM8.7241 10.1048L8.88341 10.6358L8.43127 10.2914L7.98065 10.6358L8.13996 10.1048L7.68934 9.75882H8.19307L8.35238 9.22779L8.53748 9.75882H9.09583L8.7241 10.1048ZM8.7241 14.8583L8.91072 15.3893L8.45859 15.0707L7.98065 15.3893L8.16727 14.8583L7.71514 14.5396H8.27348L8.32659 14.0344L8.48438 14.5912H9.04272L8.7241 14.8568V14.8583ZM8.7241 20.1686L8.27348 19.85L7.82134 20.1686L7.98065 19.6376L7.53003 19.3448H8.08686L8.27348 18.8137L8.45859 19.3448H9.01693L8.56479 19.6892L8.7241 20.1686ZM18.7076 2.75068L18.8942 2.21965L19.052 2.75068H19.6376L19.1582 3.0693L19.3448 3.62613L18.8942 3.41372L18.4147 3.75965L18.6013 3.2013L18.1507 2.88268L18.7076 2.75068ZM22.93 17.0082L23.1151 16.4772L23.3018 17.0082H23.8586L23.4064 17.3526L23.5658 17.8836L23.1151 17.5392L22.6645 17.8836L22.8223 17.3526L22.3717 17.0082H22.93ZM22.93 12.1758L23.1151 11.6448L23.3018 12.1758H23.8586L23.4064 12.5202L23.5658 13.0512L23.1151 12.7326L22.6645 13.0512L22.8223 12.5202L22.3717 12.1758H22.93ZM22.93 7.47537L23.1151 6.91854L23.3018 7.47689H23.8586L23.4064 7.79551L23.5658 8.32655L23.1151 8.00792L22.6645 8.32655L22.8223 7.79551L22.3717 7.47689H22.93V7.47537ZM22.93 2.75068L23.1151 2.21965L23.3018 2.75068H23.8586L23.4064 3.0693L23.5658 3.62613L23.1151 3.41372L22.6645 3.75965L22.8223 3.2013L22.3717 2.88268L22.93 2.75068ZM6.49376 12.5217L6.65307 13.0528L6.20245 12.7341L5.75031 13.0528L5.90962 12.5217L5.459 12.1758H6.06893L6.25403 11.6448L6.41486 12.1758H6.999L6.49376 12.5202V12.5217ZM6.49376 17.3526L6.65307 17.8836L6.20245 17.5392L5.75031 17.8836L5.90962 17.3526L5.459 17.0082H6.06893L6.25403 16.4772L6.41486 17.0082H6.999L6.49376 17.3526ZM6.65307 22.4779L6.20245 22.1592L5.75031 22.4779L5.90962 21.9468L5.459 21.6282H6.06893L6.25403 21.0699L6.41486 21.6282H6.999L6.49376 21.9999L6.65307 22.4779ZM4.36962 14.7779L4.52893 15.3089L4.07831 14.9903L3.62617 15.3089L3.78548 14.7779L3.41376 14.4592H3.9979L4.07831 14.0344L4.26341 14.5912H4.82176L4.36962 14.7779ZM4.50314 20.0882L4.051 19.7423L3.57307 20.0882L3.75969 19.5572L3.41376 19.1581H3.97059L4.15721 18.6271L4.31652 19.1581H4.87486L4.42272 19.5041L4.50314 20.0882ZM2.4321 22.531L1.97996 22.2123L1.50203 22.531L1.68714 21.9999L1.23652 21.6813H1.79486L1.97996 21.1245L2.13927 21.6813H2.6961L2.24548 21.9999L2.4321 22.531ZM25.1862 1.07717L23.2213 0.758545L19.3448 0.998269C15.4559 1.49394 11.78 3.05619 8.7241 5.51206V5.75027V5.61675C8.011 6.18117 7.34341 6.80324 6.73196 7.47689H7.05059L6.59996 7.79551L6.75927 8.32655L6.30714 8.00792L6.06893 8.13841C5.6441 8.61634 5.24507 9.14737 4.84755 9.67841L4.55624 10.0774V10.4476L4.28921 10.2899C2.97262 12.3221 2.02069 14.5684 1.47624 16.9278H1.82065L2.00576 16.3968L2.16658 16.9278H2.72341L2.27127 17.2722L2.4579 17.8032L2.00576 17.4588L1.52934 17.8032L1.71445 17.2722L1.44893 17.0598C0.92779 19.204 0.757676 21.4186 0.945206 23.6173H25.1862V1.07717Z" fill="#073470"/>
</g>
<defs>
<clipPath id="clip0_2054_3">
<rect width="44" height="44" fill="white"/>
</clipPath>
</defs>
</svg>
